<?xml version="1.0" encoding="utf-8"?>
<!-- Generator: Adobe Illustrator 18.0.0, SVG Export Plug-In . SVG Version: 6.00 Build 0)  -->
<!DOCTYPE svg PUBLIC "-//W3C//DTD SVG 1.1//EN" "http://www.w3.org/Graphics/SVG/1.1/DTD/svg11.dtd">
<svg version="1.1" id="Layer_1" xmlns="http://www.w3.org/2000/svg" xmlns:xlink="http://www.w3.org/1999/xlink" x="0px" y="0px"
	 viewBox="0 0 1400 980" enable-background="new 0 0 1400 980" xml:space="preserve">
<rect fill="#06B7B7" width="1400" height="980"/>
<g>
	<defs>
		<rect id="SVGID_1_" width="1400" height="980"/>
	</defs>
	<clipPath id="SVGID_2_">
		<use xlink:href="#SVGID_1_"  overflow="visible"/>
	</clipPath>
	<g clip-path="url(#SVGID_2_)">
		<path fill="#04A4A8" d="M277.6,596c-3.8-1.4-7.8-1.5-11.6-0.3c-0.5,0.1-0.9,0.1-1.4,0.3l11.7-32.8c3.5-9.7-1.5-20.4-11.2-23.9
			c-4.6-1.7-9.6-1.5-14.1,0.6c0.1-2.9-0.5-5.8-1.7-8.6c-2.1-4.5-5.9-7.9-10.5-9.6c-4.7-1.7-9.7-1.5-14.3,0.7
			c-4.5,2.1-7.9,5.9-9.6,10.5l-2,5.6c-2.1-3.8-5.5-6.8-9.9-8.4c-4.7-1.7-9.7-1.5-14.3,0.7c-4.5,2.1-7.9,5.9-9.6,10.5l-40.7,113.6
			c-3.8-4.1-8-13.9-8.9-18.5c-0.3-1.9-0.6-3.7-0.9-5.3c-1.1-6.5-1.9-11.7-5.4-19.2c-5.1-10.9-16.2-15.3-23.9-13.3
			c-6.3,1.7-9.9,7.3-9.4,14.7c0,0.1,0,0.3,0,0.4c0,0.3,0,0.5,0,0.7c0.4,5,0.7,9.1,0.9,12.8c0.2,3.5,0.4,6.7,0.5,9.7
			c0.2,3.4,0.3,6.9,0.6,10.9c0.2,4.1,0.5,8.7,1,14.4c0.3,3.4,0.5,7,0.7,10.4c0.7,11,1.3,22.3,4.1,33c1.5,6,3.9,11.8,6.5,17.2
			c4.4,9.3,9.8,17.4,14.1,23.5c0.2,0.3,0.5,0.7,0.7,1.1c0.2,0.5,0.3,1,0.4,1.5c-0.1,0.4-0.2,0.9-0.4,1.3L116,760l-6.9-2.2
			c-7.3-2.4-15.3,2.1-17.8,10l-12.6,39c-2,6.3,0,12.9,4.7,16.5l-105.1,324.5l113.3,36.7l104.9-324.1c6.4,0.6,12.9-3.7,15.1-10.6
			l12.6-39c2.5-7.9-1.3-16.2-8.6-18.5l-11.2-3.6c0.1-0.2,0.1-0.4,0.2-0.6c1.3-4.3,2.6-8.7,3.6-11.5c0.3-0.8,0.6-1.8,1.1-2.2
			c0.4-0.3,1.3-0.6,2.1-0.9l0.3-0.1c13.2-4,26.3-18.8,31.9-30.6c4.1-8.5,7-17.3,7.9-20.3L288.7,620c0,0,0,0,0,0l0-0.1
			c1.7-4.7,1.5-9.7-0.7-14.3S282.3,597.7,277.6,596z"/>
		<path fill="#04A4A8" d="M412.5,736.9c-3.5-0.5-7,0.1-10.1,1.7c-0.4,0.1-0.8,0.3-1.2,0.5l4.4-30.6c1.3-9-4.9-17.4-13.9-18.8
			c-4.3-0.6-8.6,0.4-12.1,3c-0.4-2.6-1.4-5-3-7.1c-2.6-3.5-6.5-5.9-10.9-6.5c-4.4-0.6-8.7,0.4-12.3,3.1c-3.5,2.6-5.9,6.5-6.5,10.9
			l-0.7,5.2c-2.5-2.9-6-4.9-10.1-5.5c-4.4-0.6-8.7,0.4-12.3,3.1c-3.5,2.6-5.9,6.5-6.5,10.9l-15.4,105.9c-4-2.9-9.4-10.7-11-14.5
			c-0.6-1.6-1.2-3.1-1.7-4.5c-2.1-5.5-3.7-9.8-8.1-15.7c-6.4-8.6-16.8-10.5-23.2-7.3c-5.2,2.6-7.3,8.1-5.5,14.4
			c0,0.1,0.1,0.2,0.1,0.4c0.1,0.2,0.1,0.4,0.2,0.6c1.2,4.2,2.2,7.8,3,11c0.8,3,1.5,5.7,2.2,8.4c0.7,2.9,1.5,5.9,2.4,9.4
			c0.9,3.5,2,7.5,3.4,12.4c0.8,3,1.6,6,2.4,8.9c2.5,9.4,5.1,19.2,9.4,28c2.4,5,5.5,9.6,8.7,13.8c5.5,7.3,11.6,13.4,16.4,17.9
			c0.3,0.2,0.6,0.5,0.8,0.8c0.3,0.4,0.5,0.8,0.7,1.3c0,0.4,0,0.8-0.1,1.2l-1.1,9l-6.4-0.7c-6.7-0.8-12.9,4.5-13.7,11.8l-4.1,36.1
			c-0.7,5.8,2.3,11.2,7,13.5l-34.2,300.6l104.9,11.9l34.1-300.2c5.7-0.6,10.5-5.5,11.3-11.8l4.1-36.1c0.8-7.3-4-13.8-10.7-14.6
			l-10.4-1.2c0-0.2,0-0.3,0-0.5c0.4-4,0.7-8.1,1.1-10.6c0.1-0.7,0.2-1.7,0.5-2.1c0.3-0.4,1-0.7,1.7-1.1l0.3-0.1
			c10.7-5.8,19.5-20.9,22.4-32.2c2-8.1,3-16.3,3.3-19l14.3-95.6c0,0,0,0,0,0l0-0.1c0.6-4.4-0.4-8.7-3.1-12.3
			S416.9,737.5,412.5,736.9z"/>
		<path fill="#04A4A8" d="M621.5,712.6c3.6-0.2,7,0.7,10,2.6c0.4,0.2,0.8,0.4,1.1,0.6l-1.9-30.9c-0.6-9.1,6.3-17,15.4-17.6
			c4.3-0.3,8.5,1.1,11.8,4c0.6-2.5,1.8-4.9,3.6-6.9c2.9-3.3,6.9-5.3,11.4-5.6c4.4-0.3,8.7,1.2,12,4.1c3.3,2.9,5.3,6.9,5.6,11.4
			l0.3,5.2c2.7-2.7,6.4-4.4,10.5-4.7c4.4-0.3,8.7,1.2,12,4.1c3.3,2.9,5.3,6.9,5.6,11.4l6.6,106.8c4.3-2.6,10.3-9.9,12.1-13.6
			c0.8-1.6,1.5-3,2.1-4.3c2.5-5.3,4.5-9.5,9.3-15c7-8,17.6-9.1,23.7-5.4c5,3,6.6,8.7,4.3,14.8c0,0.1-0.1,0.2-0.1,0.3
			c-0.1,0.2-0.1,0.4-0.2,0.6c-1.5,4.1-2.8,7.6-3.9,10.7c-1,3-2,5.6-2.8,8.2c-1,2.9-2,5.8-3.2,9.1c-1.2,3.4-2.6,7.3-4.4,12.1
			c-1.1,2.9-2.1,5.8-3.1,8.6c-3.3,9.2-6.7,18.7-11.6,27.1c-2.8,4.7-6.2,9.1-9.8,13.1c-6.1,6.8-12.6,12.4-17.8,16.5
			c-0.3,0.2-0.6,0.5-0.9,0.7c-0.3,0.4-0.5,0.8-0.8,1.2c0,0.4,0,0.8,0,1.2l0.3,9l6.5-0.2c6.8-0.2,12.5,5.6,12.7,12.9l1.1,36.3
			c0.2,5.9-3.2,11-8,12.9l9.3,302.4l-105.6,3.3l-9.3-302c-5.6-1.1-10-6.3-10.2-12.7l-1.1-36.3c-0.2-7.3,5.1-13.5,11.9-13.7l10.5-0.3
			c0-0.2,0-0.3,0-0.5c0-4-0.1-8.1-0.2-10.7c0-0.8-0.1-1.7-0.4-2.1c-0.2-0.4-0.9-0.8-1.6-1.2l-0.3-0.2c-10.2-6.7-17.7-22.5-19.6-34
			c-1.4-8.2-1.7-16.5-1.8-19.2l-6.4-96.5c0,0,0,0,0,0l0-0.1c-0.3-4.4,1.2-8.7,4.1-12S617.1,712.9,621.5,712.6z"/>
		<path fill="#04A4A8" d="M1025.2,765.5c3.1-0.5,6.2,0,9,1.4c0.4,0.1,0.7,0.2,1,0.4l-4.3-27c-1.3-8,4.1-15.5,12.1-16.8
			c3.8-0.6,7.6,0.3,10.8,2.5c0.3-2.3,1.2-4.4,2.6-6.4c2.3-3.2,5.7-5.3,9.5-5.9c3.9-0.6,7.7,0.3,10.9,2.6c3.2,2.3,5.3,5.7,5.9,9.5
			l0.7,4.6c2.2-2.6,5.2-4.4,8.8-5c3.9-0.6,7.7,0.3,10.9,2.6c3.2,2.3,5.3,5.7,5.9,9.5l14.9,93.6c3.5-2.6,8.2-9.6,9.5-13
			c0.6-1.4,1-2.7,1.5-4c1.8-4.9,3.2-8.7,7-14c5.5-7.7,14.7-9.5,20.4-6.8c4.6,2.2,6.6,7.1,5.1,12.7c0,0.1-0.1,0.2-0.1,0.3
			c0,0.2-0.1,0.4-0.1,0.6c-1,3.8-1.8,6.9-2.5,9.7c-0.7,2.7-1.2,5.1-1.8,7.4c-0.6,2.6-1.3,5.3-2,8.3c-0.8,3.1-1.7,6.7-2.9,11
			c-0.7,2.6-1.4,5.3-2,7.9c-2.1,8.4-4.3,17-7.9,24.9c-2.1,4.4-4.7,8.6-7.5,12.3c-4.8,6.5-10.1,12-14.3,16c-0.2,0.2-0.5,0.5-0.7,0.7
			c-0.2,0.3-0.4,0.7-0.6,1.1c0,0.3,0,0.7,0.1,1.1l1,7.9l5.7-0.7c6-0.8,11.5,3.9,12.3,10.3l4.1,31.9c0.7,5.2-1.9,9.9-6,12l33.8,265.6
			l-92.7,11.8l-33.8-265.3c-5.1-0.5-9.4-4.7-10.1-10.3l-4.1-31.9c-0.8-6.4,3.4-12.3,9.3-13.1l9.2-1.2c0-0.2,0-0.3,0-0.5
			c-0.4-3.5-0.8-7.1-1.1-9.4c-0.1-0.7-0.2-1.5-0.5-1.8c-0.2-0.3-0.9-0.6-1.5-1l-0.2-0.1c-9.6-5-17.5-18.3-20.2-28.3
			c-1.9-7.1-2.9-14.4-3.2-16.8l-13.8-84.5c0,0,0,0,0,0l0-0.1c-0.6-3.9,0.3-7.7,2.6-10.9S1021.3,766.1,1025.2,765.5z"/>
		<path fill="#04A4A8" d="M1197.4,847.5c2.5-2,5.4-3.1,8.5-3.2c0.4-0.1,0.7-0.1,1.1-0.2l-17.2-21.3c-5.1-6.3-4.1-15.5,2.2-20.6
			c3-2.4,6.7-3.6,10.6-3.2c-0.8-2.1-1.2-4.5-0.9-6.8c0.4-3.9,2.3-7.4,5.3-9.8c3-2.5,6.9-3.6,10.7-3.2c3.9,0.4,7.4,2.3,9.8,5.3
			l2.9,3.6c0.6-3.3,2.3-6.5,5.2-8.8c3-2.5,6.9-3.6,10.7-3.2c3.9,0.4,7.4,2.3,9.8,5.3l59.4,73.8c1.8-4,2.4-12.4,1.8-16
			c-0.2-1.5-0.5-2.9-0.7-4.2c-0.9-5.1-1.6-9.1-0.9-15.6c1-9.4,8.1-15.5,14.3-16c5.1-0.4,9.2,2.9,10.7,8.5c0,0.1,0.1,0.2,0.1,0.3
			c0.1,0.2,0.1,0.4,0.2,0.6c1,3.8,1.9,6.9,2.6,9.7c0.8,2.7,1.4,5,2.1,7.4c0.8,2.6,1.5,5.2,2.4,8.2c0.9,3.1,1.8,6.6,3,11
			c0.7,2.6,1.4,5.3,2.2,7.9c2.3,8.3,4.7,16.9,5.5,25.5c0.4,4.9,0.2,9.8-0.4,14.4c-0.9,8-2.8,15.4-4.4,21c-0.1,0.3-0.2,0.7-0.3,1
			c0,0.4,0,0.8,0.1,1.3c0.2,0.3,0.4,0.6,0.6,0.9l4.8,6.4l4.6-3.5c4.8-3.6,11.9-2.4,15.8,2.8l19.4,25.7c3.1,4.1,3.3,9.6,0.8,13.4
			l161.4,213.7l-74.6,56.3l-161.2-213.4c-4.6,2.1-10.5,0.6-13.9-4l-19.4-25.7c-3.9-5.2-3.2-12.3,1.6-16l7.4-5.6
			c-0.1-0.1-0.2-0.2-0.3-0.4c-2.1-2.9-4.2-5.8-5.6-7.6c-0.4-0.5-0.9-1.2-1.4-1.3c-0.4-0.2-1.1-0.1-1.8-0.1l-0.3,0
			c-10.8,0.4-24.3-7.2-31.6-14.5c-5.2-5.3-9.6-11-11.1-13l-54-66.4c0,0,0,0,0,0l0,0c-2.5-3-3.6-6.9-3.2-10.7
			C1192.5,853.4,1194.4,849.9,1197.4,847.5z"/>
		<g>
			<g>
				<path fill="#FCC994" d="M392.6,799.5l4.5-13.6c0.2-0.6,0.4-1.3,0.4-1.6c0-0.5-0.7-1.5-1.1-2.1c-6.4-9.1-15.4-23-19.4-38.6
					c-2.7-10.7-3.4-21.7-4-32.4c-0.2-3.2-0.4-6.5-0.6-9.7c-0.8-10-1.1-16.6-1.4-22.9c-0.3-6.2-0.6-12.6-1.4-22.4
					c-0.5-7,2.8-12.3,8.9-13.9c7.3-1.9,17.8,2.2,22.7,12.6c4.2,8.9,8.8,26.8,10.4,35.7c0.3,0.8,2.3,2.7,4.1,4.5l38.4-107.2
					c3.3-9.2,13.5-13.9,22.6-10.6c4,1.5,7.3,4.2,9.4,7.9l1.9-5.3c3.3-9.2,13.5-13.9,22.6-10.6c7.4,2.7,11.9,9.8,11.6,17.2
					c4.1-1.9,8.8-2.2,13.3-0.6c4.4,1.6,8,4.8,10,9.1c2,4.3,2.2,9.1,0.6,13.5l-8.1,22.2c3.8-1.5,8.2-1.7,12.4-0.2
					c9.2,3.3,13.9,13.5,10.6,22.6l-38.5,106.4c-0.9,2.8-3.7,11.2-7.5,19.2c-5.4,11.2-17.8,25.2-30.3,29l-0.3,0.1
					c-0.8,0.2-1.6,0.5-2,0.8c-0.4,0.4-0.7,1.3-1,2.1c-0.9,2.6-2.2,6.8-3.4,10.8c-0.5,1.5-0.9,3-1.4,4.5c-1.1,3.6-3.6,6.4-6.8,8
					c-1.6,0.8-3.4,1.3-5.3,1.3c-14.1,0.4-41.7-1.8-67.3-21.4C392.6,810.6,390.8,804.8,392.6,799.5z"/>
				<path fill="#AF6E43" d="M397,814c25.7,19.6,53.2,21.8,67.3,21.4c1.9-0.1,3.7-0.5,5.3-1.3c3.2-1.6,5.7-4.4,6.8-8
					c0.4-1.4,0.9-3,1.4-4.5c1.2-4,2.5-8.2,3.4-10.8c0.3-0.8,0.6-1.7,1-2.1c0.4-0.3,1.2-0.6,2-0.8l0.3-0.1
					c12.5-3.8,24.9-17.8,30.3-29c3.8-8,6.6-16.4,7.5-19.2l38.5-106.4c3.3-9.2-1.4-19.3-10.6-22.6c-4.2-1.5-8.6-1.3-12.4,0.2
					l8.1-22.2c1.6-4.4,1.4-9.2-0.6-13.5c-2-4.3-5.5-7.5-10-9.1c-4.5-1.6-9.3-1.3-13.3,0.6c0.3-7.5-4.3-14.6-11.6-17.2
					c-9.2-3.3-19.3,1.4-22.6,10.6l-1.9,5.3c-2.1-3.7-5.3-6.5-9.4-7.9c-9.2-3.3-19.3,1.4-22.6,10.6L415.5,695
					c-1.9-1.8-3.8-3.7-4.1-4.5c-1.6-8.9-6.3-26.9-10.4-35.7c-4.8-10.3-15.3-14.5-22.7-12.6c-6,1.6-9.4,6.9-8.9,13.9
					c0.8,9.8,1.1,16.2,1.4,22.4c0.3,6.3,0.6,12.9,1.4,22.9c0.3,3.2,0.4,6.5,0.6,9.7c0.6,10.7,1.3,21.7,4,32.4
					c4,15.6,13,29.5,19.4,38.6c0.5,0.7,1.1,1.6,1.1,2.1c0,0.4-0.2,1.1-0.4,1.6l-4.5,13.6C390.8,804.8,392.6,810.6,397,814z
					 M398.3,801.3l4.5-13.6c0.3-1,0.8-2.4,0.7-3.9c-0.2-2.2-1.4-3.9-2.2-5.2c-6.1-8.7-14.8-22-18.5-36.6
					c-2.6-10.1-3.2-20.9-3.9-31.3c-0.2-3.2-0.4-6.5-0.6-9.8c-0.8-10-1.1-16.4-1.4-22.7c-0.3-6.3-0.6-12.7-1.4-22.6
					c-0.2-2.9,0.4-6.5,4.4-7.6c4.8-1.3,12.2,1.9,15.6,9.3c3.8,8.1,8.4,25.5,10,34.4c0.5,2.6,2.9,4.9,6.7,8.4
					c0.8,0.8,1.7,1.6,2.6,2.5c0,0,0,0,0,0c6.6,6.4,14.7,15.6,14.7,28c0,1.7,1.4,3,3,3c1.7,0,3-1.4,3-3c-0.1-13.9-8.3-24.1-15.2-31
					l39.3-109.7c2.2-6,8.8-9.1,14.9-7c2.9,1.1,5.2,3.2,6.6,6c1.3,2.7,1.4,5.8,0.5,8.6l-32.9,93c-0.6,1.6,0.3,3.3,1.8,3.9
					c1.6,0.6,3.3-0.3,3.9-1.8l32.8-92.7c0,0,0-0.1,0-0.1c0-0.1,0-0.2,0.1-0.3l6.3-17.7c2.2-6,8.8-9.1,14.8-6.9c6,2.2,9.1,8.8,7,14.9
					l-1.8,5c-0.3,0.6-0.5,1.1-0.7,1.8c-0.1,0.2-0.1,0.5-0.2,0.7l-37,102.1c-0.6,1.6,0.2,3.3,1.8,3.9c0.8,0.3,1.6,0.2,2.4-0.1
					c0.7-0.3,1.2-0.9,1.5-1.7L519,597.3c2.6-5.1,8.7-7.6,14.3-5.6c6,2.2,9.1,8.8,7,14.9l-37.5,103.3c-0.6,1.6,0.2,3.3,1.8,3.9
					c0.8,0.3,1.6,0.2,2.4-0.1c0.7-0.3,1.2-0.9,1.5-1.7l24.8-68.4c0-0.1,0.1-0.1,0.1-0.2c2.2-6,8.8-9.1,14.9-7c6,2.2,9.1,8.8,7,14.9
					l-38,105.1c-0.1,0.2-0.2,0.4-0.3,0.6c0,0-0.1,0.3-0.3,0.8l-2.9,7.9c-0.1,0.2-0.1,0.4-0.2,0.7c-1.2,3.1-2.6,6.5-4.2,9.9
					c-4.9,10.2-16.1,22.6-26.5,25.8l-0.3,0.1c-1.3,0.4-2.9,0.9-4.3,2.1c-1.5,1.4-2.2,3.2-2.7,4.5c-1,2.8-2.3,7-3.5,11.1
					c-0.5,1.5-0.9,3-1.3,4.5c-0.9,2.9-3.5,4.9-6.5,5c-13.3,0.4-39.3-1.7-63.5-20.1C398.4,807.3,397.4,804.2,398.3,801.3z"/>
				<g>
					<path fill="#EEB37F" d="M499.1,710.9c-1.6-0.6-2.4-2.3-1.8-3.9l37.5-103.3c1.6-4.5,0.3-9.4-3.1-12.5c0.5,0.1,1,0.2,1.5,0.4
						c6,2.2,9.1,8.8,7,14.9l-37.4,103c-0.3,0.5-0.8,1-1.3,1.2C500.8,711.1,499.9,711.2,499.1,710.9z"/>
					<path fill="#EEB37F" d="M471.9,700.5c-1.6-0.6-2.4-2.3-1.8-3.9l37-102.1c0-0.2,0.1-0.5,0.2-0.7c0.2-0.6,0.5-1.2,0.7-1.8l1.8-5
						c1.6-4.5,0.3-9.4-3.1-12.5c0.5,0.1,1,0.2,1.5,0.4c6,2.2,9.1,8.8,7,14.9l-1.8,5c-0.3,0.6-0.5,1.1-0.7,1.8
						c-0.1,0.2-0.1,0.5-0.2,0.7l-36.9,101.9c-0.3,0.6-0.8,1-1.3,1.2C473.6,700.7,472.7,700.8,471.9,700.5z"/>
					<path fill="#EEB37F" d="M445,691.7c-1.6-0.6-2.4-2.3-1.8-3.9l32.9-93c1-2.8,0.8-5.9-0.5-8.6c-0.7-1.4-1.6-2.6-2.7-3.6
						c0.5,0.1,1,0.2,1.5,0.4c2.9,1.1,5.2,3.2,6.6,6c1.3,2.7,1.4,5.8,0.5,8.6l-32.8,92.8C447.9,691.6,446.4,692.2,445,691.7z"/>
					<path fill="#EEB37F" d="M427,730.9c-1.7,0-3-1.3-3-3c0-12.5-8.1-21.6-14.7-28c0,0,0,0,0,0c-0.9-0.9-1.8-1.7-2.6-2.5
						c-3.7-3.5-6.2-5.9-6.7-8.4c-1.6-8.9-6.2-26.2-10-34.4c-1.3-2.7-3-4.8-5-6.4c3.9,1.1,8.1,4.1,10.4,9.1c3.8,8.1,8.4,25.5,10,34.4
						c0.5,2.6,2.9,4.9,6.7,8.4c0.8,0.8,1.7,1.6,2.6,2.5c0,0,0,0,0,0c6.5,6.3,14.3,15.1,14.7,27.2C428.8,730.4,428,730.9,427,730.9z"
						/>
					<path fill="#EEB37F" d="M458.8,826.5c3-0.1,5.6-2.1,6.5-5c0.4-1.4,0.9-2.9,1.3-4.5c1.2-4.1,2.5-8.4,3.5-11.1
						c0.5-1.3,1.1-3.1,2.7-4.5c1.4-1.2,3-1.7,4.3-2.1l0.3-0.1c10.4-3.2,21.7-15.6,26.5-25.8c1.6-3.4,3-6.8,4.2-9.9
						c0-0.2,0.1-0.4,0.2-0.7l2.9-7.9c0.2-0.5,0.3-0.8,0.3-0.8c0.1-0.2,0.2-0.4,0.3-0.6l38-105.1c1.6-4.5,0.3-9.4-3.1-12.5
						c0.5,0.1,1,0.2,1.5,0.4c6,2.2,9.1,8.8,7,14.9l-38,105.1c-0.1,0.2-0.2,0.4-0.3,0.6c0,0-0.1,0.3-0.3,0.8l-2.9,7.9
						c-0.1,0.2-0.1,0.4-0.2,0.7c-1.2,3.1-2.6,6.5-4.2,9.9c-4.9,10.2-16.1,22.6-26.5,25.8l-0.3,0.1c-1.3,0.4-2.9,0.9-4.3,2.1
						c-1.5,1.4-2.2,3.2-2.7,4.5c-1,2.8-2.3,7-3.5,11.1c-0.5,1.5-0.9,3-1.3,4.5c-0.9,2.9-3.5,4.9-6.5,5c-11.2,0.3-31.2-1.1-51.7-12.4
						C431,825.6,448.6,826.8,458.8,826.5z"/>
				</g>
				<g>
					<path fill="#FFE4CB" d="M517.6,600.9l-0.9,2.4c0-0.2,0.1-0.5,0.1-0.7C517.1,602,517.4,601.4,517.6,600.9z"/>
					<path fill="#FFE4CB" d="M497.7,587.9l-6.3,17.7c0,0.1,0,0.2-0.1,0.3c0,0,0,0.1,0,0.1l-32.8,92.7c-0.6,1.6-2.3,2.4-3.9,1.8
						c-1.6-0.6-2.4-2.3-1.8-3.9l1.3-3.7c0-0.1,0.1-0.1,0.1-0.2l32.8-92.7c0,0,0-0.1,0-0.1c0-0.1,0-0.2,0.1-0.3l6.3-17.7
						c2.2-6,8.8-9.1,14.8-6.9c3.6,1.3,6.1,4.2,7.1,7.5c-0.9-0.6-1.8-1.1-2.9-1.5C506.5,578.8,499.8,581.9,497.7,587.9z"/>
					<path fill="#FFE4CB" d="M398.3,801.3l4.5-13.6c0.3-1,0.8-2.4,0.7-3.9c-0.2-2.2-1.4-3.9-2.2-5.2c-6.1-8.7-14.8-22-18.5-36.6
						c-2.6-10.1-3.2-20.9-3.9-31.3c-0.2-3.2-0.4-6.5-0.6-9.8c-0.8-10-1.1-16.4-1.4-22.7c-0.3-6.3-0.6-12.7-1.4-22.6
						c-0.2-2.9,0.4-6.5,4.4-7.6c4.8-1.3,12.2,1.9,15.6,9.3c0.1,0.1,0.1,0.3,0.2,0.4c-3.6-3.3-8.2-4.6-11.6-3.7c-4,1-4.6,4.7-4.4,7.6
						c0.8,9.9,1.1,16.4,1.4,22.6c0.3,6.3,0.6,12.8,1.4,22.7c0.3,3.3,0.5,6.6,0.6,9.8c0.6,10.4,1.3,21.1,3.9,31.3
						c3.7,14.6,12.4,27.9,18.5,36.6c0.9,1.2,2.1,3,2.2,5.2c0.1,1.6-0.3,2.9-0.7,3.9l-4.5,13.6c-0.3,1-0.4,2-0.3,3
						c-0.5-0.4-1.1-0.8-1.6-1.2C398.4,807.3,397.4,804.2,398.3,801.3z"/>
					<path fill="#FFE4CB" d="M537.6,649.2c0,0.1-0.1,0.1-0.1,0.2l-24.8,68.4c-0.3,0.8-0.8,1.4-1.5,1.7c-0.7,0.3-1.6,0.4-2.4,0.1
						c-1.6-0.6-2.4-2.3-1.8-3.9l26.3-72.4c0,0,0-0.1,0-0.1c2.2-6,8.8-9.1,14.9-7c3.6,1.3,6.1,4.2,7.1,7.5c-0.9-0.6-1.8-1.1-2.9-1.5
						C546.4,640.1,539.7,643.2,537.6,649.2z"/>
					<path fill="#FFE4CB" d="M463.8,595.9l-38.9,108.7c-1.5-1.8-3.1-3.5-4.6-5l39.3-109.7c2.2-6,8.8-9.1,14.9-7
						c2.9,1.1,5.2,3.2,6.6,6c0.2,0.5,0.4,1,0.6,1.5c-0.9-0.6-1.8-1.1-2.9-1.5C472.7,586.7,466,589.9,463.8,595.9z"/>
				</g>
			</g>
			<path opacity="0.48" fill="#C88B5C" d="M445.5,829.1c0-0.5-0.7-1.5-1.1-2.1c-6.4-9.1-15.4-23-19.4-38.6
				c-2.7-10.7-3.4-21.7-4-32.4c-0.2-3.2-0.4-6.5-0.6-9.7c-0.8-10-1.1-16.6-1.4-22.9c-0.3-6.2-0.6-12.6-1.4-22.4
				c-0.5-7,2.9-12.3,8.9-13.9c7.3-1.9,17.8,2.2,22.7,12.6c3.3,7.1,4.1,12,5.1,18.2c0.3,1.5,0.5,3.2,0.9,5c0.8,4.3,4.8,13.6,8.4,17.5
				l38.6-107.6c1.6-4.4,4.8-8,9.1-10c4.3-2,9.1-2.2,13.5-0.6c4.1,1.5,7.4,4.4,9.4,7.9l1.9-5.3c1.4-3.9,4.1-7.1,7.6-9.2l-5.5,15.2
				c3.8-1.5,8.2-1.7,12.4-0.2c9.2,3.3,13.9,13.5,10.6,22.6l-38.5,106.4c-0.9,2.8-3.7,11.2-7.5,19.2c-5.4,11.2-17.8,25.2-30.3,29
				l-0.3,0.1c-0.8,0.2-1.6,0.5-2,0.8c-0.4,0.4-0.7,1.3-1,2.1c-0.9,2.6-2.2,6.8-3.4,10.8c-0.5,1.5-0.9,3-1.4,4.5
				c-1.1,3.6-3.6,6.4-6.8,8c-1.6,0.8-3.4,1.3-5.3,1.3c-5.2,0.2-12.2-0.1-20.3-1.4l1.1-3.2C445.3,830.1,445.5,829.5,445.5,829.1z"/>
			<g>
				
					<rect x="311.5" y="867.9" transform="matrix(-0.9514 -0.308 0.308 -0.9514 398.9363 2139.0391)" fill="#3D3B3C" width="113.5" height="340.4"/>
				<path fill="#595959" d="M369.1,859.4l104.8,33.9c6.3,2,13.1-1.4,15.1-7.7l12.6-39c2-6.3-1.4-13.1-7.7-15.1l-104.8-33.9
					c-6.3-2-13.1,1.4-15.1,7.7l-12.6,39C359.3,850.6,362.8,857.4,369.1,859.4z"/>
				<g>
					
						<ellipse transform="matrix(-0.9514 -0.308 0.308 -0.9514 517.8945 1747.1208)" fill="#FFFFFF" cx="396.8" cy="832.7" rx="11.4" ry="12.3"/>
					<path fill="#231F20" d="M383.4,828.3c2.6-8,10.8-12.6,18.2-10.2c7.4,2.4,11.4,10.9,8.8,19s-10.8,12.6-18.2,10.2
						C384.7,844.9,380.7,836.4,383.4,828.3z M388.6,830c-1.6,4.9,0.8,10.1,5.3,11.5c4.5,1.5,9.5-1.3,11.1-6.2s-0.8-10.1-5.3-11.5
						C395.2,822.3,390.2,825.1,388.6,830z"/>
				</g>
				
					<rect x="412" y="883.7" transform="matrix(-0.9514 -0.308 0.308 -0.9514 489.6385 2185.0784)" fill="#595959" width="10.5" height="340.4"/>
				
					<rect x="314.9" y="854.1" transform="matrix(-0.9514 -0.308 0.308 -0.9514 320.137 2099.0415)" fill="#2B2B2B" width="21.6" height="340.4"/>
				<path fill="#231F20" d="M365,854.9l113.3,36.7l-106.7,329.5l-113.3-36.7L365,854.9z M471.2,895.6l-102.7-33.3l-103,318.1
					l102.7,33.3L471.2,895.6z"/>
				<g>
					<path fill="#3D3B3C" d="M371.2,838.4c-2,6.3,1,12.9,6.9,14.8l106.5,34.5c1.2,0.4,2.4,0.5,3.6,0.5c-2.8,4.3-8,6.5-12.8,4.9
						l-106.5-34.5c-5.8-1.9-8.9-8.5-6.9-14.8l12.6-39c1.6-5,6-8.3,10.7-8.5c-0.6,0.9-1.1,1.9-1.5,3.1L371.2,838.4z"/>
				</g>
				<g>
					<path fill="#878787" d="M492.4,852c2-6.3-1-12.9-6.9-14.8l-106.5-34.5c-1.2-0.4-2.4-0.5-3.6-0.5c2.8-4.3,8-6.5,12.8-4.9
						l106.5,34.5c5.8,1.9,8.9,8.5,6.9,14.8l-12.6,39c-1.6,5-6,8.3-10.7,8.5c0.6-0.9,1.1-1.9,1.5-3.1L492.4,852z"/>
				</g>
				<path fill="#231F20" d="M358.7,843.4l12.6-39c2.5-7.9,10.5-12.4,17.8-10l106.5,34.5c7.3,2.4,11.1,10.7,8.6,18.5l-12.6,39
					c-2.5,7.9-10.5,12.4-17.8,10L367.3,862C360,859.6,356.2,851.3,358.7,843.4z M387.3,800.2c-4.4-1.4-9.2,1.3-10.7,6l-12.6,39
					c-1.5,4.7,0.8,9.7,5.1,11.1l106.5,34.5c4.4,1.4,9.2-1.3,10.7-6l12.6-39c1.5-4.7-0.8-9.7-5.1-11.1L387.3,800.2z"/>
			</g>
			<g>
				<path fill="#FDEDE4" d="M461.5,838.4c0.2-0.6,0.4-1.3,0.4-1.7c0-0.6-0.7-1.5-1.2-2.2c-6.8-9.6-16.3-24.3-20.5-40.7
					c-2.9-11.3-3.6-22.9-4.3-34.2c-0.2-3.4-0.4-6.8-0.7-10.2c-0.8-10.6-1.2-17.5-1.5-24.2c-0.3-6.6-0.7-13.3-1.5-23.7
					c-0.6-7.4,3-13,9.4-14.7c7.8-2,18.8,2.4,23.9,13.3c3.5,7.5,4.3,12.6,5.4,19.2c0.3,1.6,0.6,3.4,0.9,5.3c0.8,4.5,5,14.4,8.9,18.5
					l40.7-113.6c1.7-4.7,5.1-8.4,9.6-10.5c4.5-2.1,9.6-2.3,14.3-0.7c4.4,1.6,7.8,4.6,9.9,8.4l2-5.6c1.7-4.7,5.1-8.4,9.6-10.5
					c4.5-2.1,9.6-2.3,14.3-0.7c4.7,1.7,8.4,5.1,10.5,9.6c1.3,2.7,1.9,5.6,1.7,8.6c4.5-2,9.4-2.2,14.1-0.6
					c9.7,3.5,14.7,14.2,11.2,23.9l-11.9,33.2c4.2-1.6,8.8-1.7,13.1-0.2c4.7,1.7,8.4,5.1,10.5,9.6c2.1,4.5,2.3,9.6,0.7,14.3
					l-37.2,102.5c-0.9,3-3.9,11.8-7.9,20.3c-5.7,11.9-18.8,26.6-31.9,30.6l-0.3,0.1c-0.8,0.3-1.7,0.5-2.1,0.9
					c-0.4,0.4-0.8,1.4-1.1,2.2c-1,2.8-2.3,7.2-3.6,11.5c-0.5,1.6-0.9,3.2-1.4,4.7c-1.2,3.8-3.8,6.8-7.2,8.4
					c-1.7,0.8-3.6,1.3-5.6,1.4c-14.9,0.4-44-1.9-71.1-22.5c-4.6-3.5-6.5-9.7-4.7-15.3L461.5,838.4z"/>
				<g>
					<path fill="#F5D3AB" d="M461.2,842c0.3-1.1,0.8-2.5,0.7-4.2c-0.2-2.4-1.4-4.2-2.4-5.5c-6.5-9.2-15.6-23.2-19.5-38.6
						c-2.7-10.7-3.4-22-4.1-33c-0.2-3.4-0.4-6.9-0.7-10.4c-0.8-10.5-1.2-17.4-1.5-24c-0.3-6.6-0.7-13.4-1.5-23.9
						c-0.2-3,0.4-6.9,4.6-8c5.1-1.3,12.9,2,16.5,9.8c3.1,6.7,3.8,11,4.9,17.5c0.3,1.7,0.6,3.5,0.9,5.4c0.8,4.5,6,18.8,12.9,23.8
						l-2.7,7.6c-0.6,1.7,0.3,3.5,1.9,4.1c0.8,0.3,1.7,0.2,2.5-0.1c0.7-0.4,1.3-1,1.6-1.8l45.7-127.6c1.1-3.1,3.4-5.5,6.3-6.9
						c3-1.4,6.3-1.5,9.4-0.4c6.3,2.3,9.6,9.1,7.4,15.4l-34.8,98.2c-0.6,1.7,0.3,3.5,1.9,4.1c1.7,0.6,3.5-0.3,4.1-1.9l34.6-97.8
						c0,0,0-0.1,0-0.1c0-0.1,0-0.2,0.1-0.3l6.6-18.7c1.1-3,3.3-5.4,6.1-6.8c0.1,0,0.1-0.1,0.2-0.1c3-1.4,6.3-1.5,9.4-0.4
						c3.1,1.1,5.5,3.4,6.9,6.3c1.4,3,1.5,6.3,0.4,9.4l-1.9,5.3c-0.3,0.6-0.6,1.2-0.8,1.8c-0.1,0.3-0.1,0.5-0.2,0.8L538,748.8
						c-0.6,1.7,0.3,3.5,1.9,4.1c0.8,0.3,1.7,0.2,2.5-0.1c0.7-0.4,1.3-1,1.6-1.8l39.9-110c1.2-2.4,3.2-4.3,5.7-5.5
						c3-1.4,6.3-1.5,9.4-0.4c6.4,2.3,9.6,9.3,6.6,18l-39.6,109c0.2-0.7,1,1.2,2.7,1.8c0.8,0.3,1.7,0.2,2.5-0.1
						c0.7-0.4,1.3-1,1.6-1.8l25.5-69.9c0-0.1,0.1-0.1,0.1-0.2c1.1-3,3.3-5.4,6.1-6.8c0.1,0,0.1-0.1,0.2-0.1c3-1.4,6.3-1.5,9.4-0.4
						c3.1,1.1,5.5,3.4,6.9,6.3c1.4,3,1.5,6.3,0.4,9.4l-39.4,108.6c-0.1,0.2-0.2,0.4-0.3,0.6c0,0-0.1,0.3-0.3,0.9l-3,8.4
						c-0.1,0.2-0.1,0.5-0.2,0.7c-1.2,3.2-2.7,6.9-4.4,10.5c-5.1,10.8-17,23.9-28,27.2l-0.3,0.1c-1.4,0.4-3.1,0.9-4.5,2.2
						c-1.6,1.5-2.3,3.4-2.8,4.8c-1.1,2.9-2.4,7.4-3.7,11.8c-0.5,1.6-0.9,3.1-1.4,4.6c-0.9,3.1-3.7,5.2-6.9,5.3
						c-14.1,0.4-41.5-1.8-67-21.2c-2.5-1.9-3.5-5.2-2.5-8.2L461.2,842z"/>
				</g>
				<path fill="#FCC994" d="M486.2,879.4c-8.2-2.6-16.5-5.7-22.7-11.6c-1.4-1.4-2.8-2.9-3.4-4.8c-2.1-5.7,2.5-11.5,4.3-17.4
					c2.4-7.7-0.2-16.2-4.2-23.2c-4-7-9.4-13.3-13.1-20.4c-7.2-13.9-7.9-30.1-8.3-45.8c-0.5-17.2-1-34.3-1.6-51.5
					c-0.1-4.1-0.2-8.5,2.2-11.9c2.3-3.4,8-4.7,10.5-1.4c-4.1,3.3-4,9.5-3.4,14.7c2.5,24.8,6.6,49.4,12.1,73.7
					c2.5,11,5.5,22.3,12.1,31.5c5.2,7.2,12.8,13.2,15.1,21.8c2.2,8.2-6.7,18.2-1.6,24.9c2.8,3.6,11.4,7,18,9.8
					c13.4,5.6,27.7,7.4,41.8,4.2c3.3,5.8-1.2,13.5-7.3,15.9c-6.1,2.5-13.1,1.3-19.5-0.2C506.7,885.5,496.4,882.6,486.2,879.4z"/>
				<g>
					<path fill="#F3BF90" d="M446,698.6c-4.2,1.1-4.8,5-4.6,8c0.8,10.4,1.1,17.3,1.5,23.9c0.3,6.6,0.7,13.5,1.5,24
						c0.3,3.4,0.5,7,0.7,10.4c0.7,11,1.3,22.3,4.1,33c1.2,4.8,3,9.5,5,13.9c-3.2-6.1-6-12.7-7.8-19.7c-2.7-10.7-3.4-22-4.1-33
						c-0.2-3.4-0.4-6.9-0.7-10.4c-0.8-10.5-1.2-17.4-1.5-24c-0.3-6.6-0.7-13.4-1.5-23.9c-0.2-3,0.4-6.9,4.6-8
						c5.1-1.3,12.9,2,16.5,9.8c0.5,1.2,1,2.3,1.4,3.3C457.2,700,450.6,697.4,446,698.6z"/>
					<path fill="#F3BF90" d="M471,842c0.1,1.6-0.4,3.1-0.7,4.2l-4.7,14.3c-0.3,0.8-0.4,1.6-0.4,2.4c-2.4-1.9-3.4-5.2-2.4-8.2
						l4.7-14.3c0.3-1.1,0.8-2.5,0.7-4.2c0-0.2,0-0.3-0.1-0.4c0.2,0.2,0.3,0.5,0.5,0.7C469.6,837.8,470.9,839.6,471,842z"/>
					<path fill="#F3BF90" d="M611.2,696c-0.1,0-0.1,0.1-0.2,0.1c-2.9,1.4-5.1,3.8-6.1,6.8c0,0.1-0.1,0.1-0.1,0.2l-23,62.9
						c-0.3,0.8-0.9,1.4-1.6,1.8c-0.8,0.4-1.6,0.4-2.5,0.1c-1.7-0.6-2.5-2.4-1.9-4.1l0.5-1.5c0.4,0,0.7-0.1,1.1-0.3
						c0.7-0.4,1.3-1,1.6-1.8l23-62.9c0-0.1,0.1-0.1,0.1-0.2c1.1-3,3.3-5.4,6.1-6.8c0.1,0,0.1-0.1,0.2-0.1c3-1.4,6.3-1.5,9.4-0.4
						c3.1,1.1,5.5,3.4,6.9,6.3c0.4,0.9,0.7,1.9,0.9,2.9c-1.3-1.5-3.1-2.7-5.1-3.5C617.5,694.5,614.1,694.6,611.2,696z"/>
					<path fill="#F3BF90" d="M536.6,630.3c-2.9,1.4-5.2,3.8-6.3,6.9l-45.7,127.6c-0.3,0.8-0.9,1.4-1.6,1.8c-0.7,0.4-1.6,0.4-2.5,0.1
						c-1.7-0.6-2.5-2.4-1.9-4.1l0.5-1.5c0.4,0,0.7-0.1,1.1-0.3c0.7-0.4,1.3-1,1.6-1.8l45.7-127.6c1.1-3.1,3.4-5.5,6.3-6.9
						c3-1.4,6.3-1.5,9.4-0.4c4.2,1.5,7,5.1,7.8,9.2c-1.3-1.5-3-2.7-5-3.5C542.8,628.8,539.5,628.9,536.6,630.3z"/>
					<path fill="#F3BF90" d="M572.3,621.9c-0.1,0-0.1,0.1-0.2,0.1c-2.9,1.4-5.1,3.8-6.1,6.8l-6.6,18.7c0,0.1,0,0.2-0.1,0.3
						c0,0,0,0.1,0,0.1l-34.6,97.8c-0.6,1.7-2.4,2.5-4.1,1.9c-1.7-0.6-2.5-2.4-1.9-4.1l0.5-1.5c1.2-0.1,2.3-0.9,2.7-2.1l34.6-97.8
						c0,0,0-0.1,0-0.1c0-0.1,0-0.2,0.1-0.3l6.6-18.7c1.1-3,3.3-5.4,6.1-6.8c0.1,0,0.1-0.1,0.2-0.1c3-1.4,6.3-1.5,9.4-0.4
						c3.1,1.1,5.5,3.4,6.9,6.3c0.4,0.9,0.7,1.9,0.9,2.9c-1.3-1.5-3.1-2.7-5.1-3.5C578.6,620.4,575.2,620.5,572.3,621.9z"/>
					<path fill="#F3BF90" d="M598.6,639.5c-2.5,1.2-4.4,3.1-5.7,5.5l-39.9,110c-0.3,0.8-0.9,1.4-1.6,1.8c-0.7,0.4-1.6,0.4-2.5,0.1
						c-1.7-0.6-2.5-2.4-1.9-4.1l0.5-1.5c0.4,0,0.7-0.1,1.1-0.3c0.7-0.4,1.3-1,1.6-1.8l39.9-110c1.2-2.4,3.2-4.3,5.7-5.5
						c3-1.4,6.3-1.5,9.4-0.4c4.2,1.5,7,5.1,7.8,9.2c-1.3-1.5-3-2.7-5-3.5C604.9,638,601.6,638.1,598.6,639.5z"/>
				</g>
				<path fill="#AF6E43" d="M456.8,852.7c-1.8,5.6,0,11.8,4.7,15.3c27.1,20.6,56.2,23,71.1,22.5c2-0.1,3.9-0.5,5.6-1.4
					c3.4-1.6,6-4.7,7.2-8.4c0.5-1.5,0.9-3.1,1.4-4.7c1.3-4.3,2.6-8.7,3.6-11.5c0.3-0.8,0.6-1.8,1.1-2.2c0.4-0.3,1.3-0.6,2.1-0.9
					l0.3-0.1c13.2-4,26.3-18.8,31.9-30.6c4.1-8.5,7-17.3,7.9-20.3L631,708c1.7-4.7,1.5-9.7-0.7-14.3c-2.1-4.5-5.9-7.9-10.5-9.6
					c-4.3-1.5-8.9-1.5-13.1,0.2l11.8-33.1c3.5-9.7-1.5-20.4-11.2-23.9c-4.6-1.7-9.6-1.5-14.1,0.6c0.1-2.9-0.5-5.8-1.7-8.6
					c-2.1-4.5-5.9-7.9-10.5-9.6c-4.7-1.7-9.7-1.5-14.3,0.7c-4.5,2.1-7.9,5.9-9.6,10.5l-2,5.6c-2.1-3.8-5.5-6.8-9.9-8.4
					c-4.7-1.7-9.7-1.5-14.3,0.7c-4.5,2.1-7.9,5.9-9.6,10.5l-40.7,113.6c-3.8-4.1-8-13.9-8.9-18.5c-0.3-1.9-0.6-3.7-0.9-5.3
					c-1.1-6.5-1.9-11.7-5.4-19.2c-5.1-10.9-16.2-15.3-23.9-13.3c-6.3,1.7-9.9,7.3-9.4,14.7c0.8,10.3,1.1,17.1,1.5,23.7
					c0.3,6.7,0.7,13.6,1.5,24.2c0.3,3.4,0.5,6.9,0.7,10.2c0.7,11.3,1.4,22.9,4.3,34.2c4.2,16.4,13.7,31.1,20.5,40.7
					c0.5,0.7,1.2,1.7,1.2,2.2c0,0.4-0.2,1.1-0.4,1.7L456.8,852.7z M462.8,854.7l4.7-14.3c0.3-1.1,0.8-2.5,0.7-4.2
					c-0.2-2.4-1.4-4.2-2.4-5.5c-6.5-9.2-15.6-23.2-19.5-38.6c-2.7-10.7-3.4-22-4.1-33c-0.2-3.4-0.4-6.9-0.7-10.4
					c-0.8-10.5-1.2-17.4-1.5-24c-0.3-6.6-0.7-13.4-1.5-23.9c-0.2-3,0.4-6.9,4.6-8c5.1-1.3,12.9,2,16.5,9.8c3.1,6.7,3.8,11,4.9,17.5
					c0.3,1.7,0.6,3.5,0.9,5.4c0.8,4.5,6,18.8,12.9,23.8l-2.7,7.6c-0.6,1.7,0.3,3.5,1.9,4.1c0.8,0.3,1.7,0.2,2.5-0.1
					c0.7-0.4,1.3-1,1.6-1.8l45.7-127.6c1.1-3.1,3.4-5.5,6.3-6.9c3-1.4,6.3-1.5,9.4-0.4c6.3,2.3,9.6,9.1,7.4,15.4l-34.8,98.2
					c-0.6,1.7,0.3,3.5,1.9,4.1c1.7,0.6,3.5-0.3,4.1-1.9l34.6-97.8c0,0,0-0.1,0-0.1c0-0.1,0-0.2,0.1-0.3l6.6-18.7
					c1.1-3,3.3-5.4,6.1-6.8c0.1,0,0.1-0.1,0.2-0.1c3-1.4,6.3-1.5,9.4-0.4c3.1,1.1,5.5,3.4,6.9,6.3c1.4,3,1.5,6.3,0.4,9.4l-1.9,5.3
					c-0.3,0.6-0.6,1.2-0.8,1.8c-0.1,0.3-0.1,0.5-0.2,0.8l-39.1,107.8c-0.6,1.7,0.3,3.5,1.9,4.1c0.8,0.3,1.7,0.2,2.5-0.1
					c0.7-0.4,1.3-1,1.6-1.8l39.9-110c1.2-2.4,3.2-4.3,5.7-5.5c3-1.4,6.3-1.5,9.4-0.4c6.4,2.3,9.6,9.3,7.4,15.7L573,758
					c-0.6,1.7,0.3,3.5,1.9,4.1c0.8,0.3,1.7,0.2,2.5-0.1c0.7-0.4,1.3-1,1.6-1.8l22.9-62.5c0-0.1,0.1-0.1,0.1-0.2
					c1.1-3,3.3-5.4,6.1-6.8c0.1,0,0.1-0.1,0.2-0.1c3-1.4,6.3-1.5,9.4-0.4c3.1,1.1,5.5,3.4,6.9,6.3c1.4,3,1.5,6.3,0.4,9.4
					l-36.8,101.2c-0.1,0.2-0.2,0.4-0.3,0.6c0,0-0.1,0.3-0.3,0.9l-3,8.4c-0.1,0.2-0.1,0.5-0.2,0.7c-1.2,3.2-2.7,6.9-4.4,10.5
					c-5.1,10.8-17,23.9-28,27.2l-0.3,0.1c-1.4,0.4-3.1,0.9-4.5,2.2c-1.6,1.5-2.3,3.4-2.8,4.8c-1.1,2.9-2.4,7.4-3.7,11.8
					c-0.5,1.6-0.9,3.1-1.4,4.6c-0.9,3.1-3.7,5.2-6.9,5.3c-14.1,0.4-41.5-1.8-67-21.2C462.8,861,461.8,857.7,462.8,854.7z"/>
			</g>
			
				<line fill="none" stroke="#FFFDEB" stroke-width="6" stroke-linecap="round" stroke-miterlimit="10" x1="609.8" y1="567.2" x2="598.8" y2="579.7"/>
			
				<line fill="none" stroke="#FFFDEB" stroke-width="6" stroke-linecap="round" stroke-miterlimit="10" x1="671.2" y1="649.8" x2="657.9" y2="655"/>
			
				<line fill="none" stroke="#FFFDEB" stroke-width="6" stroke-linecap="round" stroke-miterlimit="10" x1="679.2" y1="735.3" x2="663.9" y2="731.3"/>
			
				<line fill="none" stroke="#FFFDEB" stroke-width="6" stroke-linecap="round" stroke-miterlimit="10" x1="500.7" y1="524" x2="500.4" y2="536.7"/>
			<g>
				
					<rect x="373.7" y="919.2" transform="matrix(-0.9514 -0.308 0.308 -0.9514 504.3858 2258.4265)" fill="#3D3B3C" width="113.5" height="340.4"/>
				<path fill="#595959" d="M431.2,910.8L536,944.7c6.3,2,13.1-1.4,15.1-7.7l12.6-39c2-6.3-1.4-13.1-7.7-15.1l-104.8-33.9
					c-6.3-2-13.1,1.4-15.1,7.7l-12.6,39C421.5,902,424.9,908.7,431.2,910.8z"/>
				<g>
					
						<ellipse transform="matrix(-0.9514 -0.308 0.308 -0.9514 623.3441 1866.5083)" fill="#FFFFFF" cx="459" cy="884.1" rx="11.4" ry="12.3"/>
					<path fill="#231F20" d="M445.5,879.7c2.6-8,10.8-12.6,18.2-10.2c7.4,2.4,11.4,10.9,8.8,19c-2.6,8-10.8,12.6-18.2,10.2
						C446.8,896.2,442.9,887.7,445.5,879.7z M450.8,881.4c-1.6,4.9,0.8,10.1,5.3,11.5c4.5,1.5,9.5-1.3,11.1-6.2
						c1.6-4.9-0.8-10.1-5.3-11.5S452.4,876.5,450.8,881.4z"/>
				</g>
				
					<rect x="474.2" y="935.1" transform="matrix(-0.9514 -0.308 0.308 -0.9514 595.0881 2304.4658)" fill="#595959" width="10.5" height="340.4"/>
				
					<rect x="377.1" y="905.4" transform="matrix(-0.9514 -0.308 0.308 -0.9514 425.5867 2218.4287)" fill="#2B2B2B" width="21.6" height="340.4"/>
				<path fill="#231F20" d="M427.2,906.3L540.4,943l-106.7,329.5l-113.3-36.7L427.2,906.3z M533.3,947l-102.7-33.3l-103,318.1
					l102.7,33.3L533.3,947z"/>
				<g>
					<path fill="#3D3B3C" d="M433.4,889.8c-2,6.3,1,12.9,6.9,14.8l106.5,34.5c1.2,0.4,2.4,0.5,3.6,0.5c-2.8,4.3-8,6.5-12.8,4.9
						L431,910c-5.8-1.9-8.9-8.5-6.9-14.8l12.6-39c1.6-5,6-8.3,10.7-8.5c-0.6,0.9-1.1,1.9-1.5,3.1L433.4,889.8z"/>
				</g>
				<g>
					<path fill="#878787" d="M554.5,903.4c2-6.3-1-12.9-6.9-14.8l-106.5-34.5c-1.2-0.4-2.4-0.5-3.6-0.5c2.8-4.3,8-6.5,12.8-4.9
						l106.5,34.5c5.8,1.9,8.9,8.5,6.9,14.8l-12.6,39c-1.6,5-6,8.3-10.7,8.5c0.6-0.9,1.1-1.9,1.5-3.1L554.5,903.4z"/>
				</g>
				<path fill="#231F20" d="M420.9,894.8l12.6-39c2.5-7.9,10.5-12.4,17.8-10l106.5,34.5c7.3,2.4,11.1,10.7,8.6,18.5l-12.6,39
					c-2.5,7.9-10.5,12.4-17.8,10l-106.5-34.5C422.2,911,418.3,902.7,420.9,894.8z M449.5,851.5c-4.4-1.4-9.2,1.3-10.7,6l-12.6,39
					c-1.5,4.7,0.8,9.7,5.1,11.1l106.5,34.5c4.4,1.4,9.2-1.3,10.7-6l12.6-39c1.5-4.7-0.8-9.7-5.1-11.1L449.5,851.5z"/>
			</g>
		</g>
		<g>
			<g>
				<path fill="#FCC994" d="M1348.1,564.9l-10.1-10.1c-0.4-0.4-0.9-0.9-1.1-1.3c-0.2-0.5,0-1.6,0.1-2.4c1.6-11,3.4-27.5,0-43.2
					c-2.4-10.8-6.7-20.9-10.9-30.8c-1.3-2.9-2.6-6-3.8-9c-3.8-9.3-6.5-15.3-9-21.1c-2.5-5.7-5.1-11.6-8.9-20.7
					c-2.7-6.5-8.1-9.7-14.2-8.4c-7.4,1.6-14.9,10-14.6,21.4c0.3,9.8,4.2,27.9,6.8,36.6c0.1,0.8-0.8,3.5-1.7,5.9l-82.4-78.5
					c-7.1-6.7-18.3-6.4-25,0.7c-2.9,3.1-4.6,7.1-4.8,11.3l-4-3.9c-7.1-6.7-18.3-6.4-25,0.7c-5.4,5.7-6.2,14.1-2.6,20.6
					c-4.5,0.2-8.9,2-12.2,5.5c-3.2,3.4-5,7.9-4.8,12.6c0.1,4.7,2.1,9.1,5.5,12.3l17.2,16.2c-4.1,0.4-8.1,2.2-11.2,5.4
					c-6.7,7.1-6.4,18.3,0.7,25l82.2,77.7c2.1,2.1,8.3,8.3,15.3,13.8c9.8,7.6,27.2,14.5,40.1,12.3l0.3-0.1c0.8-0.1,1.7-0.3,2.1-0.2
					c0.5,0.1,1.3,0.8,1.8,1.4c2,1.9,5,5.1,7.9,8.1c1.1,1.1,2.2,2.3,3.2,3.4c2.6,2.7,6.1,4.1,9.7,4.1c1.8,0,3.6-0.4,5.3-1.2
					c12.8-6,36.4-20.3,50.6-49.3C1353.1,574.9,1352.1,568.9,1348.1,564.9z"/>
				<path fill="#AF6E43" d="M1348.1,564.9l-10.1-10.1c-0.4-0.4-0.9-0.9-1.1-1.3c-0.2-0.5,0-1.6,0.1-2.4c1.6-11,3.4-27.5,0-43.2
					c-2.4-10.8-6.7-20.9-10.9-30.8c-1.3-2.9-2.6-6-3.8-9c-3.8-9.3-6.5-15.3-9-21.1c-2.5-5.7-5.1-11.6-8.9-20.7
					c-2.7-6.5-8.1-9.7-14.2-8.4c-7.4,1.6-14.9,10-14.6,21.4c0.3,9.8,4.2,27.9,6.8,36.6c0.1,0.8-0.8,3.5-1.7,5.9l-82.4-78.5
					c-7.1-6.7-18.3-6.4-25,0.7c-2.9,3.1-4.6,7.1-4.8,11.3l-4-3.9c-7.1-6.7-18.3-6.4-25,0.7c-5.4,5.7-6.2,14.1-2.6,20.6
					c-4.5,0.2-8.9,2-12.2,5.5c-3.2,3.4-5,7.9-4.8,12.6c0.1,4.7,2.1,9.1,5.5,12.3l17.2,16.2c-4.1,0.4-8.1,2.2-11.2,5.4
					c-6.7,7.1-6.4,18.3,0.7,25l82.2,77.7c2.1,2.1,8.3,8.3,15.3,13.8c9.8,7.6,27.2,14.5,40.1,12.3l0.3-0.1c0.8-0.1,1.7-0.3,2.1-0.2
					c0.5,0.1,1.3,0.8,1.8,1.4c2,1.9,5,5.1,7.9,8.1c1.1,1.1,2.2,2.3,3.2,3.4c2.6,2.7,6.1,4.1,9.7,4.1c1.8,0,3.6-0.4,5.3-1.2
					c12.8-6,36.4-20.3,50.6-49.3C1353.1,574.9,1352.1,568.9,1348.1,564.9z M1345.2,577.2c-13.3,27.3-35.6,40.9-47.7,46.5
					c-2.7,1.3-6,0.7-8.1-1.6c-1-1.1-2.1-2.2-3.2-3.4c-3-3.1-6-6.4-8.1-8.4c-1-1-2.4-2.3-4.4-2.8c-1.8-0.5-3.4-0.2-4.8,0l-0.3,0.1
					c-10.7,1.9-26.4-4.2-35.3-11.1c-3-2.3-5.8-4.7-8.2-7c-0.1-0.2-0.3-0.4-0.4-0.5l-6.1-5.8c-0.4-0.4-0.6-0.6-0.6-0.6
					c-0.2-0.2-0.3-0.3-0.5-0.4l-81.2-76.8c-4.6-4.4-4.8-11.8-0.5-16.4c4.4-4.6,11.8-4.8,16.4-0.5c0,0,0.1,0.1,0.1,0.1l52.9,50
					c0.6,0.6,1.4,0.8,2.1,0.8c0.8,0,1.6-0.3,2.2-0.9c1.1-1.2,1.1-3.1-0.1-4.3l-79.9-75.4c-4.6-4.4-4.8-11.8-0.5-16.4
					c4.1-4.3,10.6-4.8,15.2-1.4l80.6,76.1c0.6,0.6,1.4,0.8,2.1,0.8c0.8,0,1.6-0.3,2.2-0.9c1.1-1.2,1.1-3.1-0.1-4.3l-78.9-74.6
					c-0.1-0.2-0.3-0.4-0.5-0.6c-0.5-0.4-1-0.8-1.5-1.2l-3.9-3.6c-4.6-4.4-4.8-11.8-0.5-16.4c4.4-4.6,11.8-4.8,16.4-0.5l13.5,13
					c0.1,0.1,0.1,0.1,0.2,0.2c0,0,0.1,0,0.1,0.1l70.9,68c1.2,1.2,3.1,1.1,4.3-0.1c1.2-1.2,1.1-3.1-0.1-4.3l-71.2-68.3
					c-2.1-2.1-3.4-4.9-3.4-7.9c-0.1-3.1,1-6,3.2-8.3c4.4-4.6,11.8-4.8,16.4-0.5l84.4,80.4c-3.1,9.3-5.9,22.1,0.4,34.5
					c0.7,1.5,2.6,2.1,4.1,1.4c1.5-0.7,2.1-2.6,1.4-4.1c-5.6-11.2-2.5-22.9,0.5-31.6c0,0,0,0,0,0c0.4-1.2,0.8-2.4,1.2-3.4
					c1.7-4.8,2.9-8,2.2-10.5c-2.6-8.7-6.3-26.2-6.5-35.2c-0.2-8.1,4.9-14.3,9.8-15.3c4-0.9,6.2,2.1,7.3,4.8
					c3.8,9.2,6.4,15.1,8.9,20.8c2.5,5.7,5.2,11.7,9,20.9c1.2,3,2.6,6.1,3.8,9.1c4.1,9.6,8.4,19.5,10.6,29.7
					c3.2,14.7,1.5,30.5-0.1,41c-0.2,1.5-0.5,3.6,0.3,5.6c0.6,1.4,1.6,2.5,2.4,3.2l10.1,10.1C1345.9,571.3,1346.5,574.6,1345.2,577.2
					z"/>
				<g>
					<path fill="#EEB37F" d="M1213.1,533.6c1.1-1.2,1.1-3.1-0.1-4.3l-79.9-75.4c-3.5-3.3-4.5-8.3-2.9-12.6c-0.4,0.3-0.8,0.7-1.2,1.1
						c-4.4,4.6-4.2,12,0.5,16.4l79.7,75.2c0.5,0.4,1.1,0.5,1.7,0.5C1211.8,534.6,1212.6,534.3,1213.1,533.6z"/>
					<path fill="#EEB37F" d="M1232.8,512.2c1.1-1.2,1.1-3.1-0.1-4.3l-78.9-74.6c-0.1-0.2-0.3-0.4-0.5-0.6c-0.5-0.4-1-0.8-1.5-1.2
						l-3.9-3.6c-3.5-3.3-4.5-8.3-2.9-12.6c-0.4,0.3-0.8,0.7-1.2,1.1c-4.4,4.6-4.2,12,0.5,16.4l3.9,3.6c0.5,0.4,1,0.8,1.5,1.2
						c0.2,0.2,0.3,0.4,0.5,0.6l78.7,74.4c0.5,0.4,1.1,0.5,1.7,0.5C1231.4,513.1,1232.2,512.8,1232.8,512.2z"/>
					<path fill="#EEB37F" d="M1252.9,492.2c1.2-1.2,1.1-3.1-0.1-4.3l-71.2-68.3c-2.1-2.1-3.4-4.9-3.4-7.9c0-1.5,0.2-3.1,0.7-4.5
						c-0.4,0.3-0.8,0.7-1.2,1c-2.1,2.3-3.3,5.2-3.2,8.3c0.1,3,1.3,5.8,3.4,7.9l71,68.1C1250.2,493.4,1251.9,493.2,1252.9,492.2z"/>
					<path fill="#EEB37F" d="M1286.5,519.1c1.5-0.7,2.1-2.6,1.4-4.1c-5.6-11.2-2.5-22.9,0.5-31.6c0,0,0,0,0,0
						c0.4-1.2,0.8-2.4,1.2-3.4c1.7-4.8,2.9-8,2.2-10.5c-2.6-8.7-6.3-26.2-6.5-35.2c-0.1-3,0.5-5.7,1.6-8c-3,2.7-5.4,7.3-5.2,12.8
						c0.3,8.9,4,26.5,6.5,35.2c0.7,2.5-0.4,5.7-2.2,10.5c-0.4,1.1-0.8,2.2-1.2,3.4c0,0,0,0,0,0c-2.9,8.5-5.9,19.9-0.9,30.9
						C1284.7,519.5,1285.7,519.6,1286.5,519.1z"/>
					<path fill="#EEB37F" d="M1301.1,618.8c-2.7,1.3-6,0.7-8.1-1.6c-1-1.1-2.1-2.2-3.2-3.4c-3-3.1-6-6.4-8.1-8.4
						c-1-1-2.4-2.3-4.4-2.8c-1.8-0.5-3.4-0.2-4.8,0l-0.3,0.1c-10.7,1.9-26.4-4.2-35.3-11.1c-3-2.3-5.8-4.7-8.2-7
						c-0.1-0.2-0.3-0.4-0.4-0.5l-6.1-5.8c-0.4-0.4-0.6-0.6-0.6-0.6c-0.2-0.2-0.3-0.3-0.5-0.4l-81.2-76.8c-3.5-3.3-4.5-8.3-2.9-12.6
						c-0.4,0.3-0.8,0.7-1.2,1.1c-4.4,4.6-4.2,12,0.5,16.4l81.2,76.8c0.2,0.1,0.3,0.3,0.5,0.4c0,0,0.2,0.2,0.6,0.6l6.1,5.8
						c0.2,0.2,0.3,0.3,0.4,0.5c2.4,2.2,5.3,4.7,8.2,7c8.9,6.9,24.6,13,35.3,11.1l0.3-0.1c1.3-0.2,3-0.5,4.8,0c2,0.5,3.4,1.9,4.4,2.8
						c2.1,2,5.2,5.2,8.1,8.4c1.1,1.1,2.2,2.3,3.2,3.4c2.1,2.2,5.3,2.8,8.1,1.6c10.1-4.7,27.4-15,40.6-34.3
						C1325.5,605.6,1310.3,614.5,1301.1,618.8z"/>
				</g>
				<g>
					<path fill="#FFE4CB" d="M1147.2,443.7l1.8,1.7c-0.1-0.2-0.3-0.4-0.4-0.6C1148.1,444.5,1147.6,444.1,1147.2,443.7z"/>
					<path fill="#FFE4CB" d="M1159.2,423.2l13.5,13c0.1,0.1,0.1,0.1,0.2,0.2c0,0,0.1,0,0.1,0.1l70.9,68c1.2,1.2,3.1,1.1,4.3-0.1
						c1.2-1.2,1.1-3.1-0.1-4.3l-2.9-2.8c-0.1-0.1-0.1-0.1-0.2-0.2l-70.9-68c0,0-0.1,0-0.1-0.1c-0.1-0.1-0.1-0.1-0.2-0.2l-13.5-13
						c-4.6-4.4-12-4.2-16.4,0.5c-2.6,2.8-3.6,6.5-3,9.9c0.5-0.9,1.1-1.8,1.9-2.6C1147.2,419,1154.6,418.8,1159.2,423.2z"/>
					<path fill="#FFE4CB" d="M1343.8,569.2l-10.1-10.1c-0.7-0.8-1.8-1.8-2.4-3.2c-0.9-2.1-0.6-4.1-0.3-5.6c1.6-10.5,3.3-26.3,0.1-41
						c-2.2-10.2-6.5-20.1-10.6-29.7c-1.3-3-2.6-6-3.8-9.1c-3.8-9.2-6.4-15.2-9-20.9c-2.5-5.7-5.2-11.6-8.9-20.8
						c-1.1-2.7-3.3-5.7-7.3-4.8c-4.9,1-10,7.2-9.8,15.3c0,0.1,0,0.3,0,0.5c1.8-4.6,5.3-7.8,8.7-8.5c4-0.9,6.2,2.1,7.3,4.8
						c3.8,9.2,6.4,15.1,8.9,20.8c2.5,5.7,5.2,11.7,9,20.9c1.2,3,2.6,6.1,3.8,9.1c4.1,9.6,8.4,19.5,10.6,29.7
						c3.2,14.7,1.5,30.5-0.1,41c-0.2,1.5-0.5,3.6,0.3,5.6c0.6,1.4,1.6,2.5,2.4,3.2l10.1,10.1c0.7,0.7,1.3,1.6,1.6,2.5
						c0.3-0.6,0.6-1.2,0.9-1.8C1346.5,574.6,1345.9,571.3,1343.8,569.2z"/>
					<path fill="#FFE4CB" d="M1151.1,495.9c0,0,0.1,0.1,0.1,0.1l52.9,50c0.6,0.6,1.4,0.8,2.1,0.8c0.8,0,1.6-0.3,2.2-0.9
						c1.1-1.2,1.1-3.1-0.1-4.3l-56-52.9c0,0,0,0-0.1-0.1c-4.6-4.4-12-4.2-16.4,0.5c-2.6,2.8-3.6,6.5-3,9.9c0.5-0.9,1.1-1.8,1.9-2.6
						C1139.1,491.7,1146.4,491.5,1151.1,495.9z"/>
					<path fill="#FFE4CB" d="M1193,415.1l83.7,79.6c0.6-2.3,1.2-4.5,1.9-6.6l-84.4-80.4c-4.6-4.4-12-4.2-16.4,0.5
						c-2.1,2.3-3.3,5.2-3.2,8.3c0,0.6,0.1,1.1,0.2,1.6c0.5-1,1.1-1.8,1.9-2.6C1181,410.9,1188.4,410.7,1193,415.1z"/>
				</g>
			</g>
			<path opacity="0.48" fill="#C88B5C" d="M1314.2,615.2c-0.2-0.5,0-1.6,0.1-2.4c1.6-11,3.4-27.5,0-43.2
				c-2.4-10.8-6.7-20.9-10.9-30.8c-1.3-2.9-2.6-6-3.8-9c-3.8-9.3-6.5-15.3-9-21.1c-2.5-5.7-5.1-11.6-8.8-20.7
				c-2.7-6.5-8.1-9.7-14.2-8.4c-7.4,1.6-14.9,10-14.6,21.4c0.2,7.8,1.7,12.6,3.6,18.5c0.5,1.5,1,3.1,1.5,4.9
				c1.2,4.2,1.8,14.3,0.4,19.4l-82.8-78.8c-3.4-3.2-7.9-5-12.6-4.8c-4.7,0.1-9.1,2.1-12.3,5.5c-3,3.2-4.6,7.2-4.8,11.3l-4-3.9
				c-3-2.8-6.8-4.5-10.9-4.8l11.7,11.1c-4.1,0.4-8.1,2.2-11.2,5.4c-6.7,7.1-6.4,18.3,0.7,25l82.2,77.7c2.1,2.1,8.3,8.3,15.3,13.8
				c9.8,7.6,27.2,14.5,40.1,12.3l0.3-0.1c0.8-0.1,1.7-0.3,2.1-0.2c0.5,0.1,1.3,0.8,1.8,1.4c2,1.9,5,5.1,7.9,8.1
				c1.1,1.1,2.2,2.3,3.2,3.4c2.6,2.7,6.1,4.1,9.7,4.1c1.8,0,3.6-0.4,5.3-1.2c4.7-2.2,10.9-5.5,17.6-10.3l-2.4-2.4
				C1314.8,616,1314.3,615.5,1314.2,615.2z"/>
			<g>
				
					<rect x="1420.2" y="597" transform="matrix(0.7115 -0.7027 0.7027 0.7115 -112.9437 1259.1818)" fill="#052B51" width="113.5" height="340.4"/>
				<path fill="#6F7F8C" d="M1396,607.9l-78.3,77.4c-4.7,4.7-12.3,4.6-17-0.1l-28.8-29.2c-4.7-4.7-4.6-12.3,0.1-17l78.3-77.4
					c4.7-4.7,12.3-4.6,17,0.1l28.8,29.2C1400.8,595.7,1400.7,603.3,1396,607.9z"/>
				<g>
					
						<ellipse transform="matrix(0.7115 -0.7027 0.7027 0.7115 -27.0265 1127.2006)" fill="#FFFFFF" cx="1359.2" cy="596.5" rx="11.4" ry="12.3"/>
					<path fill="#231F20" d="M1370,607.4c-5.6,5.5-14.9,5.1-20.9-0.9c-5.9-6-6.2-15.4-0.7-20.9c5.6-5.5,14.9-5.1,20.9,0.9
						C1375.3,592.6,1375.6,601.9,1370,607.4z M1352.7,589.9c-3.4,3.3-3.2,9,0.4,12.7c3.6,3.7,9.3,3.9,12.7,0.6
						c3.4-3.3,3.2-9-0.4-12.7S1356.1,586.5,1352.7,589.9z"/>
				</g>
				
					<rect x="1435.1" y="633.1" transform="matrix(0.7115 -0.7027 0.7027 0.7115 -148.9359 1243.8773)" fill="#0C4472" width="10.5" height="340.4"/>
				
					<rect x="1498" y="565.5" transform="matrix(0.7115 -0.7027 0.7027 0.7115 -81.6749 1272.4778)" fill="#002142" width="21.6" height="340.4"/>
				<path fill="#020D2B" d="M1641,848.5l-84.7,83.7L1313,685.8l84.7-83.7L1641,848.5z M1556.1,924l76.8-75.9l-234.9-237.9
					l-76.8,75.9L1556.1,924z"/>
				<g>
					<path fill="#4E6575" d="M1384.7,590.1c4.7,4.7,4.9,12,0.5,16.3l-79.6,78.6c-0.9,0.9-1.9,1.5-3,2c4.5,2.6,10.1,2.2,13.7-1.3
						l79.6-78.6c4.4-4.3,4.1-11.6-0.5-16.3l-28.8-29.2c-3.7-3.8-9.1-4.7-13.3-2.8c1,0.6,1.9,1.2,2.7,2.1L1384.7,590.1z"/>
				</g>
				<g>
					<path fill="#99AFBC" d="M1282.6,656.7c-4.7-4.7-4.9-12-0.5-16.3l79.6-78.6c0.9-0.9,1.9-1.5,3-2c-4.5-2.6-10.1-2.2-13.7,1.3
						l-79.6,78.6c-4.4,4.3-4.1,11.6,0.5,16.3l28.8,29.2c3.7,3.8,9.1,4.7,13.3,2.8c-1-0.6-1.9-1.2-2.7-2.1L1282.6,656.7z"/>
				</g>
				<path fill="#020D2B" d="M1398.8,609.4l-79.6,78.6c-5.4,5.4-14.6,5-20.4-0.9l-28.8-29.2c-5.8-5.9-6.1-15-0.7-20.4l79.6-78.6
					c5.4-5.4,14.6-5,20.4,0.9l28.8,29.2C1403.9,594.9,1404.2,604.1,1398.8,609.4z M1273.5,641.8c-3.3,3.2-3.1,8.7,0.4,12.3
					l28.8,29.2c3.5,3.5,9,3.8,12.2,0.6l79.6-78.6c3.3-3.2,3.1-8.7-0.4-12.3l-28.8-29.2c-3.5-3.5-9-3.8-12.2-0.6L1273.5,641.8z"/>
			</g>
			<g>
				<path fill="#FDEDE4" d="M1304.1,630.6c-0.5-0.5-1-1-1.2-1.4c-0.2-0.5-0.1-1.7,0.1-2.5c1.7-11.6,3.6-29,0-45.6
					c-2.5-11.4-7.1-22.1-11.6-32.5c-1.3-3.1-2.7-6.3-4-9.5c-4-9.8-6.8-16.2-9.5-22.3c-2.7-6-5.4-12.2-9.3-21.8
					c-2.8-6.9-8.5-10.3-15-8.9c-7.8,1.7-15.8,10.6-15.4,22.6c0.2,8.3,1.8,13.3,3.8,19.6c0.5,1.6,1,3.3,1.6,5.2
					c1.3,4.4,2,15.1,0.4,20.5l-87.4-83.2c-3.6-3.4-8.4-5.2-13.3-5.1c-5,0.1-9.6,2.2-13,5.8c-3.2,3.4-4.9,7.6-5.1,11.9l-4.3-4.1
					c-3.6-3.4-8.4-5.2-13.3-5.1c-5,0.1-9.6,2.2-13,5.8c-3.4,3.6-5.2,8.3-5.1,13.3c0.1,3,0.9,5.9,2.3,8.4c-4.9,0.2-9.4,2.2-12.8,5.8
					c-7.1,7.5-6.7,19.3,0.7,26.4l25.5,24.3c-4.5,0.4-8.6,2.4-11.8,5.7c-3.4,3.6-5.2,8.3-5.1,13.3c0.1,5,2.2,9.6,5.8,13l79.3,74.8
					c2.2,2.2,8.8,8.8,16.2,14.5c10.4,8,28.7,15.3,42.3,13l0.3-0.1c0.9-0.2,1.8-0.3,2.3-0.2c0.6,0.2,1.3,0.9,1.9,1.5
					c2.1,2,5.3,5.4,8.4,8.6c1.1,1.2,2.3,2.4,3.4,3.5c2.7,2.9,6.5,4.3,10.2,4.3c1.9,0,3.8-0.4,5.6-1.3c13.5-6.3,38.4-21.5,53.4-52.1
					c2.6-5.3,1.5-11.6-2.7-15.8L1304.1,630.6z"/>
				<g>
					<path fill="#F5D3AB" d="M1305.9,633.8c-0.8-0.8-1.9-1.9-2.5-3.4c-0.9-2.2-0.6-4.4-0.4-6c1.7-11.1,3.5-27.7,0.1-43.3
						c-2.4-10.8-6.8-21.2-11.2-31.3c-1.3-3.1-2.7-6.4-4-9.6c-4-9.8-6.8-16-9.5-22.1c-2.7-6-5.4-12.3-9.4-22c-1.2-2.8-3.4-6-7.7-5.1
						c-5.2,1.1-10.6,7.6-10.3,16.2c0.2,7.4,1.5,11.5,3.5,17.8c0.5,1.6,1.1,3.3,1.6,5.3c1.3,4.4,3.1,19.5-0.8,27l5.8,5.5
						c1.3,1.2,1.3,3.2,0.1,4.5c-0.6,0.6-1.4,1-2.3,1c-0.8,0-1.6-0.3-2.2-0.9l-98.2-93.5c-2.4-2.2-5.5-3.4-8.7-3.3
						c-3.3,0.1-6.3,1.4-8.6,3.8c-4.6,4.8-4.4,12.5,0.3,17.1l75.2,72.1c1.3,1.2,1.3,3.2,0.1,4.5c-1.2,1.3-3.2,1.3-4.5,0.1l-74.9-71.8
						c0,0-0.1,0-0.1-0.1c-0.1-0.1-0.1-0.1-0.2-0.2l-14.3-13.7c-2.3-2.2-5.4-3.4-8.6-3.3c-0.1,0-0.1,0-0.2,0
						c-3.3,0.1-6.3,1.4-8.6,3.8c-2.2,2.4-3.4,5.5-3.3,8.8c0.1,3.3,1.4,6.3,3.8,8.6l4.1,3.9c0.5,0.4,1,0.8,1.5,1.3
						c0.2,0.2,0.4,0.4,0.5,0.6l83.3,78.7c1.3,1.2,1.3,3.2,0.1,4.5c-0.6,0.7-1.4,1-2.3,1c-0.8,0-1.6-0.3-2.2-0.9l-85-80.4
						c-2.2-1.6-4.8-2.4-7.5-2.4c-3.3,0.1-6.3,1.4-8.6,3.8c-4.6,4.9-4.4,12.7,2.2,19.1l84.3,79.6c-0.4-0.5-0.4,1.5-1.6,2.8
						c-0.6,0.7-1.4,1-2.3,1c-0.8,0-1.6-0.3-2.2-0.9l-54.2-51c0,0-0.1-0.1-0.1-0.1c-2.3-2.2-5.4-3.4-8.6-3.4c-0.1,0-0.1,0-0.2,0
						c-3.3,0.1-6.3,1.4-8.6,3.8c-2.2,2.4-3.4,5.5-3.3,8.8c0.1,3.3,1.4,6.3,3.8,8.6l84,79.3c0.2,0.1,0.4,0.3,0.5,0.4
						c0,0,0.2,0.3,0.6,0.7l6.5,6.1c0.2,0.2,0.3,0.3,0.5,0.5c2.6,2.3,5.5,4.9,8.7,7.3c9.4,7.3,26,13.7,37.3,11.7l0.3-0.1
						c1.4-0.3,3.2-0.6,5.1,0c2.1,0.6,3.6,2,4.6,3c2.3,2.1,5.5,5.6,8.6,8.9c1.1,1.2,2.3,2.4,3.3,3.5c2.2,2.3,5.6,3,8.5,1.6
						c12.8-5.9,36.3-20.2,50.3-49.1c1.4-2.8,0.8-6.2-1.5-8.5L1305.9,633.8z"/>
				</g>
				<path fill="#FCC994" d="M1300.4,678.4c6.1-6,12.2-12.5,15.1-20.6c0.7-1.9,1.2-3.8,0.9-5.8c-0.7-6.1-7.4-9.2-11.7-13.6
					c-5.6-5.8-7.1-14.6-6.7-22.6c0.4-8.1,2.4-16,2.5-24.1c0.2-15.6-6.5-30.4-13.1-44.6c-7.2-15.6-14.5-31.1-21.7-46.7
					c-1.7-3.7-3.7-7.7-7.3-9.7c-3.6-2-9.3-0.6-10,3.4c5.1,1.1,7.8,6.7,9.7,11.6c8.9,23.3,16.3,47.1,22.3,71.3
					c2.7,11,5.2,22.4,3.3,33.6c-1.4,8.8-5.5,17.5-3.7,26.3c1.7,8.3,14.2,13.2,12.6,21.5c-0.9,4.5-7,11.4-11.7,16.9
					c-9.4,11-21.4,19-35.5,22.6c-0.3,6.6,7.1,11.5,13.7,11c6.6-0.5,12.3-4.7,17.4-8.9C1284.8,693,1292.8,685.9,1300.4,678.4z"/>
				<g>
					<path fill="#F3BF90" d="M1255,498.8c4.3-0.9,6.6,2.3,7.7,5.1c4,9.7,6.7,15.9,9.4,22c2.7,6.1,5.5,12.4,9.5,22.1
						c1.3,3.2,2.7,6.4,4,9.6c4.3,10.1,8.8,20.5,11.2,31.3c1.1,4.9,1.6,9.8,1.8,14.7c0.1-6.8-0.4-14.1-1.9-21.1
						c-2.4-10.8-6.8-21.2-11.2-31.3c-1.3-3.1-2.7-6.4-4-9.6c-4-9.8-6.8-16-9.5-22.1c-2.7-6-5.4-12.3-9.4-22c-1.2-2.8-3.4-6-7.7-5.1
						c-5.2,1.1-10.6,7.6-10.3,16.2c0,1.3,0.1,2.5,0.2,3.6C1245.7,505.1,1250.4,499.8,1255,498.8z"/>
					<path fill="#F3BF90" d="M1297.1,638.1c0.6,1.5,1.7,2.6,2.5,3.4l10.6,10.7c0.6,0.6,1.1,1.3,1.4,2c1.3-2.8,0.7-6.2-1.5-8.4
						l-10.6-10.7c-0.8-0.8-1.9-1.9-2.5-3.4c-0.1-0.1-0.1-0.3-0.1-0.4c0,0.3-0.1,0.6-0.1,0.9C1296.5,633.8,1296.2,636,1297.1,638.1z"
						/>
					<path fill="#F3BF90" d="M1106.3,570.7c0.1,0,0.1,0,0.2,0c3.2,0,6.2,1.1,8.6,3.4c0,0,0.1,0.1,0.1,0.1L1164,620
						c0.6,0.6,1.4,0.9,2.2,0.9c0.8,0,1.7-0.3,2.3-1c1.2-1.3,1.2-3.3-0.1-4.5l-1.2-1.1c-0.3,0.1-0.7,0.2-1.1,0.2
						c-0.8,0-1.6-0.3-2.2-0.9l-48.8-45.8c0,0-0.1-0.1-0.1-0.1c-2.3-2.2-5.4-3.4-8.6-3.4c-0.1,0-0.1,0-0.2,0
						c-3.3,0.1-6.3,1.4-8.6,3.8c-2.2,2.4-3.4,5.5-3.3,8.8c0,1,0.2,2,0.5,3c0.5-2,1.5-3.8,3-5.4
						C1100,572.2,1103.1,570.8,1106.3,570.7z"/>
					<path fill="#F3BF90" d="M1143.5,478.5c3.3-0.1,6.4,1.1,8.7,3.3l98.2,93.5c0.6,0.6,1.4,0.9,2.2,0.9c0.8,0,1.7-0.3,2.3-1
						c1.2-1.3,1.2-3.3-0.1-4.5l-1.2-1.1c-0.4,0.1-0.7,0.2-1.1,0.2c-0.8,0-1.6-0.3-2.2-0.9l-98.2-93.5c-2.4-2.2-5.5-3.4-8.7-3.3
						c-3.3,0.1-6.3,1.4-8.6,3.8c-3.1,3.2-4,7.7-2.9,11.7c0.5-1.9,1.5-3.8,2.9-5.4C1137.2,479.9,1140.2,478.6,1143.5,478.5z"/>
					<path fill="#F3BF90" d="M1107.8,487c0.1,0,0.1,0,0.2,0c3.2,0,6.2,1.1,8.6,3.3l14.3,13.7c0.1,0.1,0.1,0.1,0.2,0.2
						c0,0,0.1,0,0.1,0.1l74.9,71.8c1.3,1.2,3.3,1.2,4.5-0.1c1.2-1.3,1.2-3.3-0.1-4.5l-1.2-1.1c-1.1,0.4-2.4,0.2-3.4-0.7l-74.9-71.8
						c0,0-0.1,0-0.1-0.1c-0.1-0.1-0.1-0.1-0.2-0.2l-14.3-13.7c-2.3-2.2-5.4-3.4-8.6-3.3c-0.1,0-0.1,0-0.2,0
						c-3.3,0.1-6.3,1.4-8.6,3.8c-2.2,2.4-3.4,5.5-3.3,8.8c0,1,0.2,2,0.5,3c0.5-2,1.5-3.8,3-5.4
						C1101.5,488.5,1104.5,487.1,1107.8,487z"/>
					<path fill="#F3BF90" d="M1092.2,514.6c2.7-0.1,5.4,0.8,7.5,2.4l85,80.4c0.6,0.6,1.4,0.9,2.2,0.9c0.8,0,1.7-0.3,2.3-1
						c1.2-1.3,1.2-3.3-0.1-4.5l-1.2-1.1c-0.3,0.1-0.7,0.2-1.1,0.2c-0.8,0-1.6-0.3-2.2-0.9l-85-80.4c-2.2-1.6-4.8-2.4-7.5-2.4
						c-3.3,0.1-6.3,1.4-8.6,3.8c-3.1,3.2-4,7.7-2.9,11.7c0.5-1.9,1.5-3.8,3-5.4C1085.9,516.1,1088.9,514.7,1092.2,514.6z"/>
				</g>
				<path fill="#AF6E43" d="M1304.1,630.6c-0.5-0.5-1-1-1.2-1.4c-0.2-0.5-0.1-1.7,0.1-2.5c1.7-11.6,3.6-29,0-45.6
					c-2.5-11.4-7.1-22.1-11.6-32.5c-1.3-3.1-2.7-6.3-4-9.5c-4-9.8-6.8-16.2-9.5-22.3c-2.7-6-5.4-12.2-9.3-21.8
					c-2.8-6.9-8.5-10.3-15-8.9c-7.8,1.7-15.8,10.6-15.4,22.6c0.2,8.3,1.8,13.3,3.8,19.6c0.5,1.6,1,3.3,1.6,5.2
					c1.3,4.4,2,15.1,0.4,20.5l-87.4-83.2c-3.6-3.4-8.4-5.2-13.3-5.1c-5,0.1-9.6,2.2-13,5.8c-3.2,3.4-4.9,7.6-5.1,11.9l-4.3-4.1
					c-3.6-3.4-8.4-5.2-13.3-5.1c-5,0.1-9.6,2.2-13,5.8c-3.4,3.6-5.2,8.3-5.1,13.3c0.1,3,0.9,5.9,2.3,8.4c-4.9,0.2-9.4,2.2-12.8,5.8
					c-7.1,7.5-6.7,19.3,0.7,26.4l25.4,24.2c-4.5,0.4-8.6,2.4-11.8,5.7c-3.4,3.6-5.2,8.3-5.1,13.3c0.1,5,2.2,9.6,5.8,13l79.4,74.9
					c2.2,2.2,8.8,8.8,16.2,14.5c10.4,8,28.7,15.3,42.3,13l0.3-0.1c0.9-0.2,1.8-0.3,2.3-0.2c0.6,0.2,1.3,0.9,1.9,1.5
					c2.1,2,5.3,5.4,8.4,8.6c1.1,1.2,2.3,2.4,3.4,3.5c2.7,2.9,6.5,4.3,10.2,4.3c1.9,0,3.8-0.4,5.6-1.3c13.5-6.3,38.4-21.5,53.4-52.1
					c2.6-5.3,1.5-11.6-2.7-15.8L1304.1,630.6z M1311.6,654.3c-14.1,28.9-37.6,43.1-50.3,49.1c-2.9,1.3-6.3,0.7-8.5-1.6
					c-1.1-1.1-2.2-2.3-3.3-3.5c-3.1-3.3-6.4-6.8-8.6-8.9c-1.1-1-2.6-2.4-4.6-3c-1.9-0.5-3.6-0.2-5.1,0l-0.3,0.1
					c-11.3,2-27.8-4.4-37.3-11.7c-3.1-2.4-6.1-5-8.7-7.3c-0.1-0.2-0.3-0.4-0.5-0.5l-6.5-6.1c-0.4-0.4-0.6-0.6-0.6-0.7
					c-0.2-0.2-0.3-0.3-0.5-0.4l-78.3-73.9c-2.4-2.2-3.7-5.3-3.8-8.6c-0.1-3.3,1.1-6.4,3.3-8.8c2.2-2.4,5.3-3.7,8.6-3.8
					c0.1,0,0.1,0,0.2,0c3.2,0,6.2,1.1,8.6,3.4c0,0,0.1,0.1,0.1,0.1l48.5,45.6c0.6,0.6,1.4,0.9,2.2,0.9c0.8,0,1.7-0.3,2.3-1
					c1.2-1.3,1.2-3.3-0.1-4.5l-84.3-79.6c-4.9-4.6-5.1-12.4-0.5-17.3c2.2-2.4,5.3-3.7,8.6-3.8c2.7-0.1,5.4,0.8,7.5,2.4l85,80.4
					c0.6,0.6,1.4,0.9,2.2,0.9c0.8,0,1.7-0.3,2.3-1c1.2-1.3,1.2-3.3-0.1-4.5l-83.3-78.7c-0.1-0.2-0.3-0.4-0.5-0.6
					c-0.5-0.5-1-0.9-1.5-1.3l-4.1-3.9c-2.4-2.2-3.7-5.3-3.8-8.6c-0.1-3.3,1.1-6.4,3.3-8.8s5.3-3.7,8.6-3.8c0.1,0,0.1,0,0.2,0
					c3.2,0,6.2,1.1,8.6,3.3l14.3,13.7c0.1,0.1,0.1,0.1,0.2,0.2c0,0,0.1,0,0.1,0.1l74.9,71.8c1.3,1.2,3.3,1.2,4.5-0.1
					c1.2-1.3,1.2-3.3-0.1-4.5l-75.2-72.1c-4.7-4.7-4.9-12.3-0.3-17.1c2.2-2.4,5.3-3.7,8.6-3.8c3.3-0.1,6.4,1.1,8.7,3.3l98.2,93.5
					c0.6,0.6,1.4,0.9,2.2,0.9c0.8,0,1.7-0.3,2.3-1c1.2-1.3,1.2-3.3-0.1-4.5l-5.8-5.5c3.9-7.5,2.1-22.7,0.8-27
					c-0.6-1.9-1.1-3.7-1.6-5.3c-2-6.3-3.3-10.4-3.5-17.8c-0.2-8.6,5.2-15.1,10.3-16.2c4.3-0.9,6.6,2.3,7.7,5.1
					c4,9.7,6.7,15.9,9.4,22c2.7,6.1,5.5,12.4,9.5,22.1c1.3,3.2,2.7,6.4,4,9.6c4.3,10.1,8.8,20.5,11.2,31.3
					c3.4,15.6,1.6,32.2-0.1,43.3c-0.2,1.6-0.6,3.8,0.4,6c0.6,1.5,1.7,2.6,2.5,3.4l10.6,10.7C1312.4,648.1,1313,651.5,1311.6,654.3z"
					/>
			</g>
			
				<line fill="none" stroke="#FFFDEB" stroke-width="6" stroke-linecap="round" stroke-miterlimit="10" x1="1050.1" y1="455.2" x2="1065.1" y2="461.3"/>
			
				<line fill="none" stroke="#FFFDEB" stroke-width="6" stroke-linecap="round" stroke-miterlimit="10" x1="1030.4" y1="556.6" x2="1046.1" y2="555"/>
			
				<line fill="none" stroke="#FFFDEB" stroke-width="6" stroke-linecap="round" stroke-miterlimit="10" x1="1063" y1="636.6" x2="1075.1" y2="626"/>
			
				<line fill="none" stroke="#FFFDEB" stroke-width="6" stroke-linecap="round" stroke-miterlimit="10" x1="1127.7" y1="367.4" x2="1133.7" y2="378.6"/>
			<g>
				
					<rect x="1387.8" y="670.8" transform="matrix(0.7115 -0.7027 0.7027 0.7115 -174.1726 1257.6847)" fill="#052B51" width="113.5" height="340.4"/>
				<path fill="#6F7F8C" d="M1363.6,681.7l-78.3,77.4c-4.7,4.7-12.3,4.6-17-0.1l-28.8-29.2c-4.7-4.7-4.6-12.3,0.1-17l78.3-77.4
					c4.7-4.7,12.3-4.6,17,0.1l28.8,29.2C1368.4,669.5,1368.3,677.1,1363.6,681.7z"/>
				<g>
					
						<ellipse transform="matrix(0.7115 -0.7027 0.7027 0.7115 -88.2554 1125.7035)" fill="#FFFFFF" cx="1326.8" cy="670.3" rx="11.4" ry="12.3"/>
					<path fill="#231F20" d="M1337.6,681.2c-5.6,5.5-14.9,5.1-20.9-0.9c-5.9-6-6.2-15.4-0.7-20.9c5.6-5.5,14.9-5.1,20.9,0.9
						C1342.8,666.4,1343.1,675.7,1337.6,681.2z M1320.2,663.7c-3.4,3.3-3.2,9,0.4,12.7c3.6,3.7,9.3,3.9,12.7,0.6
						c3.4-3.3,3.2-9-0.4-12.7C1329.3,660.6,1323.6,660.3,1320.2,663.7z"/>
				</g>
				
					<rect x="1402.7" y="707" transform="matrix(0.7115 -0.7027 0.7027 0.7115 -210.1647 1242.3801)" fill="#0C4472" width="10.5" height="340.4"/>
				
					<rect x="1465.6" y="639.3" transform="matrix(0.7115 -0.7027 0.7027 0.7115 -142.9038 1270.9807)" fill="#002142" width="21.6" height="340.4"/>
				<path fill="#020D2B" d="M1608.6,922.3l-84.7,83.7l-243.4-246.4l84.7-83.7L1608.6,922.3z M1523.6,997.8l76.8-75.9l-234.9-237.9
					l-76.8,75.9L1523.6,997.8z"/>
				<g>
					<path fill="#4E6575" d="M1352.3,663.9c4.7,4.7,4.9,12,0.5,16.3l-79.6,78.6c-0.9,0.9-1.9,1.5-3,2c4.5,2.6,10.1,2.2,13.7-1.3
						l79.6-78.6c4.4-4.3,4.1-11.6-0.5-16.3l-28.8-29.2c-3.7-3.8-9.1-4.7-13.3-2.8c1,0.6,1.9,1.2,2.7,2.1L1352.3,663.9z"/>
				</g>
				<g>
					<path fill="#99AFBC" d="M1250.1,730.6c-4.7-4.7-4.9-12-0.5-16.3l79.6-78.6c0.9-0.9,1.9-1.5,3-2c-4.5-2.6-10.1-2.2-13.7,1.3
						l-79.6,78.6c-4.4,4.3-4.1,11.6,0.5,16.3l28.8,29.2c3.7,3.8,9.1,4.7,13.3,2.8c-1-0.6-1.9-1.2-2.7-2.1L1250.1,730.6z"/>
				</g>
				<path fill="#020D2B" d="M1366.3,683.2l-79.6,78.6c-5.4,5.4-14.6,5-20.4-0.9l-28.8-29.2c-5.8-5.9-6.1-15-0.7-20.4l79.6-78.6
					c5.4-5.4,14.6-5,20.4,0.9l28.8,29.2C1371.5,668.7,1371.8,677.9,1366.3,683.2z M1241,715.6c-3.3,3.2-3.1,8.7,0.4,12.3l28.8,29.2
					c3.5,3.5,9,3.8,12.2,0.6l79.6-78.6c3.3-3.2,3.1-8.7-0.4-12.3l-28.8-29.2c-3.5-3.5-9-3.8-12.2-0.6L1241,715.6z"/>
			</g>
		</g>
		<g>
			<g>
				<path fill="#FCC994" d="M1017.8,824.5l-4.1-13.7c-0.2-0.6-0.4-1.3-0.3-1.7c0.1-0.5,0.7-1.4,1.2-2.1c6.7-8.9,16.1-22.6,20.5-38
					c3-10.6,4-21.6,5-32.3c0.3-3.2,0.6-6.5,0.9-9.7c1.1-10,1.6-16.5,2.1-22.8c0.5-6.2,1-12.6,2-22.4c0.7-7-2.5-12.4-8.5-14.2
					c-7.3-2.1-17.9,1.7-23,11.9c-4.4,8.8-9.6,26.6-11.4,35.4c-0.3,0.8-2.4,2.7-4.3,4.4l-35.3-108.2c-3-9.2-13.1-14.3-22.3-11.2
					c-4.1,1.3-7.4,4-9.6,7.7l-1.7-5.3c-3-9.2-13.1-14.3-22.3-11.2c-7.5,2.5-12.2,9.4-12.1,16.9c-4-2-8.7-2.4-13.3-0.9
					c-4.5,1.5-8.1,4.6-10.2,8.8c-2.1,4.2-2.5,9-1,13.5l7.4,22.4c-3.8-1.6-8.2-1.9-12.4-0.5c-9.2,3-14.3,13.1-11.2,22.3l35.4,107.4
					c0.8,2.8,3.4,11.3,7,19.4c5,11.4,17.1,25.7,29.4,29.8l0.3,0.1c0.8,0.3,1.6,0.5,2,0.9c0.4,0.4,0.7,1.3,1,2.1
					c0.9,2.6,2,6.8,3.1,10.9c0.4,1.5,0.8,3.1,1.2,4.5c1,3.6,3.4,6.5,6.6,8.2c1.6,0.8,3.4,1.4,5.3,1.5c14.1,0.8,41.7-0.6,67.9-19.4
					C1017.5,835.7,1019.4,829.9,1017.8,824.5z"/>
				<path fill="#AF6E43" d="M1017.8,824.5l-4.1-13.7c-0.2-0.6-0.4-1.3-0.3-1.7c0.1-0.5,0.7-1.4,1.2-2.1c6.7-8.9,16.1-22.6,20.5-38
					c3-10.6,4-21.6,5-32.3c0.3-3.2,0.6-6.5,0.9-9.7c1.1-10,1.6-16.5,2.1-22.8c0.5-6.2,1-12.6,2-22.4c0.7-7-2.5-12.4-8.5-14.2
					c-7.3-2.1-17.9,1.7-23,11.9c-4.4,8.8-9.6,26.6-11.4,35.4c-0.3,0.8-2.4,2.7-4.3,4.4l-35.3-108.2c-3-9.2-13.1-14.3-22.3-11.2
					c-4.1,1.3-7.4,4-9.6,7.7l-1.7-5.3c-3-9.2-13.1-14.3-22.3-11.2c-7.5,2.5-12.2,9.4-12.1,16.9c-4-2-8.7-2.4-13.3-0.9
					c-4.5,1.5-8.1,4.6-10.2,8.8c-2.1,4.2-2.5,9-1,13.5l7.4,22.4c-3.8-1.6-8.2-1.9-12.4-0.5c-9.2,3-14.3,13.1-11.2,22.3l35.4,107.4
					c0.8,2.8,3.4,11.3,7,19.4c5,11.4,17.1,25.7,29.4,29.8l0.3,0.1c0.8,0.3,1.6,0.5,2,0.9c0.4,0.4,0.7,1.3,1,2.1
					c0.9,2.6,2,6.8,3.1,10.9c0.4,1.5,0.8,3.1,1.2,4.5c1,3.6,3.4,6.5,6.6,8.2c1.6,0.8,3.4,1.4,5.3,1.5c14.1,0.8,41.7-0.6,67.9-19.4
					C1017.5,835.7,1019.4,829.9,1017.8,824.5z M1009.4,834c-24.7,17.7-50.7,19.1-64,18.3c-3-0.2-5.6-2.3-6.4-5.2
					c-0.4-1.4-0.8-3-1.2-4.5c-1.1-4.2-2.3-8.5-3.2-11.2c-0.4-1.3-1-3.2-2.5-4.6c-1.3-1.3-2.9-1.8-4.2-2.2l-0.3-0.1
					c-10.3-3.5-21.2-16.2-25.8-26.6c-1.5-3.4-2.8-6.9-3.9-10c0-0.2-0.1-0.4-0.1-0.7l-2.6-8c-0.1-0.5-0.2-0.8-0.2-0.8
					c-0.1-0.2-0.1-0.4-0.2-0.6l-35-106.1c-2-6.1,1.3-12.6,7.4-14.7c6.1-2,12.6,1.3,14.7,7.4c0,0.1,0,0.1,0.1,0.2l22.9,69.1
					c0.3,0.8,0.8,1.4,1.5,1.7c0.7,0.4,1.5,0.5,2.4,0.2c1.6-0.5,2.4-2.2,1.9-3.8l-34.5-104.3c-2-6.1,1.3-12.6,7.4-14.7
					c5.6-1.8,11.6,0.8,14.1,6l34.8,105.3c0.3,0.8,0.8,1.4,1.5,1.7c0.7,0.4,1.5,0.5,2.4,0.2c1.6-0.5,2.5-2.2,1.9-3.8L903.7,619
					c0-0.2-0.1-0.5-0.1-0.7c-0.2-0.6-0.4-1.2-0.7-1.8l-1.7-5c-2-6.1,1.3-12.6,7.4-14.7c6.1-2,12.6,1.3,14.6,7.4L929,622
					c0,0.1,0,0.2,0.1,0.3c0,0,0,0.1,0,0.1l30.1,93.6c0.5,1.6,2.2,2.5,3.8,2c1.6-0.5,2.5-2.2,2-3.8l-30.3-94
					c-0.9-2.9-0.6-5.9,0.7-8.6c1.4-2.8,3.8-4.8,6.7-5.8c6.1-2,12.6,1.3,14.6,7.4L993,723.9c-7.1,6.7-15.6,16.7-16.1,30.6
					c-0.1,1.7,1.3,3.1,2.9,3.1c1.7,0.1,3.1-1.3,3.1-2.9c0.4-12.5,8.7-21.3,15.5-27.6c0,0,0,0,0,0c0.9-0.9,1.9-1.7,2.7-2.4
					c3.8-3.4,6.4-5.7,6.9-8.2c1.9-8.8,6.9-26.1,10.9-34.1c3.7-7.3,11.1-10.3,15.9-8.8c4,1.2,4.4,4.8,4.1,7.7c-1,9.9-1.5,16.3-2,22.6
					c-0.5,6.3-1,12.7-2.1,22.7c-0.3,3.3-0.6,6.6-0.9,9.8c-0.9,10.4-1.9,21.1-4.8,31.1c-4.2,14.5-13.1,27.5-19.5,36.1
					c-0.9,1.2-2.2,2.9-2.4,5.1c-0.2,1.6,0.3,2.9,0.6,4l4.1,13.7C1012.9,829.2,1011.8,832.3,1009.4,834z"/>
				<g>
					<path fill="#EEB37F" d="M913.9,733c1.6-0.5,2.4-2.2,1.9-3.8l-34.5-104.3c-1.5-4.6,0-9.4,3.5-12.4c-0.5,0.1-1,0.2-1.5,0.4
						c-6.1,2-9.4,8.6-7.4,14.7l34.4,104c0.3,0.6,0.7,1,1.3,1.3C912.2,733.1,913.1,733.2,913.9,733z"/>
					<path fill="#EEB37F" d="M941.3,723.4c1.6-0.5,2.5-2.2,1.9-3.8l-34.1-103.1c0-0.2-0.1-0.5-0.1-0.7c-0.2-0.6-0.4-1.2-0.7-1.8
						l-1.7-5c-1.5-4.6,0-9.4,3.5-12.4c-0.5,0.1-1,0.2-1.5,0.4c-6.1,2-9.4,8.6-7.4,14.7l1.7,5c0.3,0.6,0.5,1.2,0.7,1.8
						c0.1,0.2,0.1,0.5,0.1,0.7l34,102.9c0.3,0.6,0.7,1,1.3,1.3C939.7,723.6,940.5,723.7,941.3,723.4z"/>
					<path fill="#EEB37F" d="M968.6,715.3c1.6-0.5,2.5-2.2,2-3.8l-30.3-94c-0.9-2.9-0.6-5.9,0.7-8.6c0.7-1.4,1.6-2.6,2.8-3.6
						c-0.5,0.1-1,0.2-1.5,0.4c-2.9,1-5.3,3-6.7,5.8c-1.4,2.7-1.6,5.7-0.7,8.6l30.2,93.7C965.6,715.1,967.1,715.8,968.6,715.3z"/>
					<path fill="#EEB37F" d="M985.3,755c1.7,0.1,3.1-1.3,3.1-2.9c0.4-12.5,8.7-21.3,15.5-27.6c0,0,0,0,0,0c0.9-0.9,1.9-1.7,2.7-2.4
						c3.8-3.4,6.4-5.7,6.9-8.2c1.9-8.8,6.9-26.1,10.9-34.1c1.3-2.7,3.2-4.7,5.2-6.2c-4,1-8.2,3.9-10.7,8.8c-4,8-9.1,25.2-10.9,34.1
						c-0.5,2.5-3.1,4.8-6.9,8.2c-0.9,0.8-1.8,1.6-2.7,2.4c0,0,0,0,0,0c-6.6,6.1-14.7,14.7-15.4,26.7
						C983.6,754.5,984.4,755,985.3,755z"/>
					<path fill="#EEB37F" d="M950.9,849.7c-3-0.2-5.6-2.3-6.4-5.2c-0.4-1.4-0.8-3-1.2-4.5c-1.1-4.2-2.3-8.5-3.2-11.2
						c-0.4-1.3-1-3.2-2.5-4.6c-1.3-1.3-2.9-1.8-4.2-2.2l-0.3-0.1c-10.3-3.5-21.2-16.2-25.8-26.6c-1.5-3.4-2.8-6.9-3.9-10
						c0-0.2-0.1-0.4-0.1-0.7l-2.6-8c-0.1-0.5-0.2-0.8-0.2-0.8c-0.1-0.2-0.1-0.4-0.2-0.6l-35-106.1c-1.5-4.6,0-9.4,3.5-12.4
						c-0.5,0.1-1,0.2-1.5,0.4c-6.1,2-9.4,8.6-7.4,14.7l35,106.1c0.1,0.2,0.2,0.4,0.2,0.6c0,0,0.1,0.3,0.2,0.8l2.6,8
						c0.1,0.2,0.1,0.4,0.1,0.7c1.1,3.1,2.4,6.6,3.9,10c4.6,10.3,15.5,23.1,25.8,26.6l0.3,0.1c1.3,0.4,2.9,1,4.2,2.2
						c1.5,1.4,2.1,3.2,2.5,4.6c0.9,2.8,2.1,7.1,3.2,11.2c0.4,1.5,0.8,3,1.2,4.5c0.8,2.9,3.4,5,6.4,5.2c11.2,0.7,31.2-0.2,52-10.9
						C978.6,849.6,961,850.3,950.9,849.7z"/>
				</g>
				<g>
					<path fill="#FFE4CB" d="M898.5,622.5l0.8,2.4c0-0.2-0.1-0.5-0.1-0.7C899,623.6,898.8,623,898.5,622.5z"/>
					<path fill="#FFE4CB" d="M918.8,610.1l5.7,17.8c0,0.1,0,0.2,0.1,0.3c0,0,0,0.1,0,0.1l30.1,93.6c0.5,1.6,2.2,2.5,3.8,2
						c1.6-0.5,2.5-2.2,2-3.8l-1.2-3.8c0-0.1-0.1-0.2-0.1-0.2l-30.1-93.6c0,0,0-0.1,0-0.1c0-0.1,0-0.2-0.1-0.3l-5.7-17.8
						c-2-6.1-8.6-9.4-14.6-7.4c-3.6,1.2-6.2,4-7.3,7.3c0.9-0.6,1.8-1.1,2.9-1.4C910.3,600.7,916.8,604,918.8,610.1z"/>
					<path fill="#FFE4CB" d="M1012,826.3l-4.1-13.7c-0.3-1-0.7-2.4-0.6-4c0.2-2.2,1.5-3.9,2.4-5.1c6.4-8.5,15.4-21.6,19.5-36.1
						c2.9-10,3.8-20.8,4.8-31.1c0.3-3.2,0.6-6.5,0.9-9.8c1.1-9.9,1.6-16.4,2.1-22.7c0.5-6.2,1-12.7,2-22.6c0.3-2.9-0.2-6.5-4.1-7.7
						c-4.8-1.4-12.2,1.6-15.9,8.8c-0.1,0.1-0.1,0.3-0.2,0.4c3.7-3.2,8.3-4.4,11.7-3.4c4,1.2,4.4,4.8,4.1,7.7c-1,9.9-1.5,16.3-2,22.6
						c-0.5,6.3-1,12.7-2.1,22.7c-0.3,3.3-0.6,6.6-0.9,9.8c-0.9,10.4-1.9,21.1-4.8,31.1c-4.2,14.5-13.1,27.5-19.5,36.1
						c-0.9,1.2-2.2,2.9-2.4,5.1c-0.2,1.6,0.3,2.9,0.6,4l4.1,13.7c0.3,1,0.3,2,0.2,3c0.5-0.4,1.1-0.7,1.6-1.1
						C1011.8,832.3,1012.9,829.2,1012,826.3z"/>
					<path fill="#FFE4CB" d="M877.2,670.2c0,0.1,0,0.1,0.1,0.2l22.9,69.1c0.3,0.8,0.8,1.4,1.5,1.7c0.7,0.4,1.5,0.5,2.4,0.2
						c1.6-0.5,2.4-2.2,1.9-3.8l-24.2-73.2c0,0,0-0.1,0-0.1c-2-6.1-8.6-9.4-14.7-7.4c-3.6,1.2-6.2,4-7.3,7.3c0.9-0.6,1.8-1.1,2.9-1.4
						C868.6,660.9,875.2,664.2,877.2,670.2z"/>
					<path fill="#FFE4CB" d="M952.4,619l35.8,109.8c1.6-1.8,3.2-3.4,4.8-4.9l-36.1-110.8c-2-6.1-8.6-9.4-14.6-7.4
						c-2.9,1-5.3,3-6.7,5.8c-0.2,0.5-0.4,1-0.6,1.5c0.9-0.6,1.9-1.1,2.9-1.4C943.9,609.6,950.4,612.9,952.4,619z"/>
				</g>
			</g>
			<path opacity="0.48" fill="#C88B5C" d="M964.1,852.7c0.1-0.5,0.7-1.4,1.2-2.1c6.7-8.9,16.1-22.6,20.5-38c3-10.6,4-21.6,5-32.3
				c0.3-3.2,0.6-6.5,0.9-9.7c1.1-10,1.6-16.5,2.1-22.9c0.5-6.2,1-12.6,2-22.4c0.7-7-2.5-12.4-8.5-14.2c-7.3-2.1-17.9,1.7-23,11.9
				c-3.5,7-4.5,11.9-5.6,18c-0.3,1.5-0.6,3.2-1,5c-0.9,4.3-5.2,13.5-8.9,17.3l-35.5-108.7c-1.5-4.5-4.6-8.1-8.8-10.2
				c-4.2-2.1-9-2.5-13.5-1c-4.2,1.4-7.5,4.2-9.6,7.7l-1.7-5.3c-1.3-3.9-3.9-7.2-7.3-9.4l5.1,15.3c-3.8-1.6-8.2-1.9-12.4-0.5
				c-9.2,3-14.3,13.1-11.2,22.3l35.4,107.4c0.8,2.8,3.4,11.3,7,19.4c5,11.4,17.1,25.7,29.4,29.8l0.3,0.1c0.8,0.3,1.6,0.5,2,0.9
				c0.4,0.4,0.7,1.3,1,2.1c0.9,2.6,2,6.8,3.1,10.9c0.4,1.5,0.8,3.1,1.2,4.5c1,3.6,3.4,6.5,6.6,8.2c1.6,0.8,3.4,1.4,5.3,1.5
				c5.2,0.3,12.2,0.3,20.4-0.8l-1-3.3C964.3,853.7,964.1,853,964.1,852.7z"/>
			<g>
				<path fill="#B72E3E" d="M1021.9,1252.9l118.1-33.5l-110.7-390.3c-1.3-4.6-6.1-7.3-10.7-6l-101.4,28.8c-4.6,1.3-7.3,6.1-6,10.7
					L1021.9,1252.9z"/>
				<path fill="#E24462" d="M1129,1222.5l11-3.1l-110.7-390.3c-1.3-4.6-6.1-7.3-10.7-6l-2.6,0.7L1129,1222.5z"/>
				<path fill="#A01A2D" d="M1023.2,1252.5l22.5-6.4l-113-398.6l-14.2,4c-4.6,1.3-7.3,6.1-6,10.7L1023.2,1252.5z"/>
				<path fill="#540012" d="M907.6,860.5c-1.3-4.6,1.4-9.4,6-10.7l107.2-30.4c4.6-1.3,9.4,1.4,10.7,6l112.3,396.1l-123.8,35.1
					L907.6,860.5z M1027.3,832.8c-1.3-4.6-6.1-7.3-10.7-6L921,854c-4.6,1.3-7.3,6.1-6,10.7l109,384.5l112.3-31.8L1027.3,832.8z"/>
				<g>
					<circle fill="#FFFFFF" cx="943.1" cy="883.5" r="10.3"/>
					<path fill="#540012" d="M930.8,887c-1.9-6.8,2-13.9,8.8-15.8c6.8-1.9,13.9,2,15.8,8.8c1.9,6.8-2,13.9-8.8,15.8
						C939.8,897.7,932.7,893.8,930.8,887z M935.6,885.6c1.2,4.1,5.5,6.5,9.6,5.4c4.1-1.2,6.5-5.5,5.4-9.6c-1.2-4.1-5.5-6.5-9.6-5.4
						C936.8,877.2,934.4,881.5,935.6,885.6z"/>
				</g>
				<g>
					<circle fill="#FFFFFF" cx="953.1" cy="918.8" r="10.3"/>
					<path fill="#540012" d="M940.8,922.2c-1.9-6.8,2-13.9,8.8-15.8c6.8-1.9,13.9,2,15.8,8.8s-2,13.9-8.8,15.8
						C949.8,933,942.7,929,940.8,922.2z M945.6,920.9c1.2,4.1,5.5,6.5,9.6,5.4c4.1-1.2,6.5-5.5,5.4-9.6c-1.2-4.1-5.5-6.5-9.6-5.4
						C946.8,912.4,944.4,916.8,945.6,920.9z"/>
				</g>
			</g>
			<g>
				<path fill="#FDEDE4" d="M947.9,861.5c-0.2-0.6-0.4-1.4-0.4-1.8c0.1-0.6,0.8-1.5,1.3-2.2c7.1-9.4,17-23.8,21.7-40.1
					c3.2-11.2,4.2-22.8,5.2-34.1c0.3-3.4,0.6-6.8,1-10.2c1.1-10.6,1.7-17.5,2.2-24.1c0.5-6.5,1-13.3,2.1-23.6
					c0.8-7.4-2.6-13.1-8.9-14.9c-7.7-2.3-18.9,1.8-24.3,12.6c-3.7,7.4-4.7,12.5-6,19c-0.3,1.6-0.6,3.4-1.1,5.3
					c-1,4.5-5.5,14.2-9.4,18.2l-37.4-114.7c-1.6-4.7-4.9-8.6-9.3-10.8c-4.4-2.2-9.5-2.6-14.2-1.1c-4.4,1.5-7.9,4.4-10.1,8.1
					l-1.8-5.6c-1.6-4.7-4.9-8.6-9.3-10.8c-4.4-2.2-9.5-2.6-14.2-1.1c-4.7,1.6-8.6,4.9-10.8,9.3c-1.4,2.7-2,5.6-2,8.5
					c-4.4-2.2-9.4-2.5-14-1c-9.8,3.2-15.1,13.8-11.9,23.5l10.9,33.5c-4.2-1.8-8.7-2-13.1-0.5c-4.7,1.6-8.6,4.9-10.8,9.3
					c-2.2,4.4-2.6,9.5-1.1,14.2l34.3,103.5c0.9,3,3.5,11.9,7.4,20.5c5.3,12,18,27.1,31,31.5l0.3,0.1c0.8,0.3,1.7,0.6,2.1,0.9
					c0.4,0.4,0.7,1.4,1,2.2c0.9,2.8,2.1,7.3,3.3,11.6c0.4,1.6,0.9,3.2,1.3,4.7c1,3.8,3.6,6.9,6.9,8.6c1.7,0.9,3.6,1.4,5.6,1.5
					c14.9,0.9,44-0.6,71.7-20.5c4.7-3.4,6.8-9.5,5.1-15.2L947.9,861.5z"/>
				<g>
					<path fill="#F5D3AB" d="M948,865.1c-0.3-1.1-0.8-2.5-0.6-4.2c0.2-2.4,1.6-4.1,2.5-5.4c6.8-9,16.2-22.8,20.6-38.1
						c3-10.6,4-21.9,5-32.9c0.3-3.4,0.6-6.9,1-10.3c1.1-10.5,1.7-17.3,2.2-23.9c0.5-6.6,1-13.4,2.1-23.8c0.3-3-0.2-6.9-4.4-8.1
						c-5.1-1.5-12.9,1.7-16.8,9.3c-3.3,6.6-4.1,10.9-5.4,17.3c-0.3,1.7-0.7,3.4-1.1,5.4c-0.9,4.5-6.5,18.6-13.5,23.4l2.5,7.7
						c0.5,1.7-0.4,3.5-2,4c-0.9,0.3-1.7,0.2-2.5-0.2c-0.7-0.4-1.3-1-1.6-1.8l-42-128.9c-1-3.1-3.2-5.6-6.1-7.1
						c-2.9-1.5-6.2-1.7-9.3-0.7c-6.3,2.1-9.8,8.9-7.9,15.2l31.9,99.2c0.5,1.7-0.4,3.5-2.1,4c-1.7,0.5-3.5-0.4-4-2.1l-31.8-98.8
						c0,0,0-0.1,0-0.1c0-0.1,0-0.2-0.1-0.3l-6.1-18.8c-1-3-3.1-5.5-5.9-7c-0.1,0-0.1-0.1-0.2-0.1c-2.9-1.5-6.2-1.7-9.3-0.7
						c-3.1,1-5.6,3.2-7.1,6.1c-1.5,2.9-1.7,6.2-0.7,9.3l1.8,5.3c0.3,0.6,0.5,1.2,0.7,1.9c0.1,0.3,0.1,0.5,0.1,0.8l36,108.9
						c0.6,1.7-0.4,3.5-2,4c-0.9,0.3-1.7,0.2-2.5-0.2c-0.7-0.4-1.3-1-1.6-1.8l-36.7-111.1c-1.2-2.4-3.1-4.4-5.5-5.6
						c-2.9-1.5-6.2-1.7-9.3-0.7c-6.4,2.1-9.9,9.1-7.1,17.8l36.4,110.1c-0.1-0.7-1,1.1-2.7,1.7c-0.9,0.3-1.7,0.2-2.5-0.2
						c-0.7-0.4-1.3-1-1.6-1.8l-23.5-70.6c0-0.1-0.1-0.1-0.1-0.2c-1-3-3.1-5.5-5.9-7c-0.1,0-0.1-0.1-0.2-0.1
						c-2.9-1.5-6.2-1.7-9.3-0.7c-3.1,1-5.6,3.2-7.1,6.1c-1.5,2.9-1.7,6.2-0.7,9.3l36.2,109.7c0.1,0.2,0.2,0.4,0.2,0.6
						c0,0,0.1,0.3,0.3,0.9l2.8,8.5c0.1,0.2,0.1,0.5,0.1,0.7c1.1,3.3,2.5,7,4.1,10.6c4.8,10.9,16.3,24.4,27.2,28l0.3,0.1
						c1.4,0.5,3.1,1,4.5,2.4c1.6,1.5,2.2,3.4,2.7,4.8c1,2.9,2.2,7.5,3.4,11.9c0.4,1.6,0.9,3.2,1.3,4.7c0.9,3.1,3.6,5.3,6.7,5.5
						c14.1,0.8,41.5-0.6,67.6-19.3c2.5-1.8,3.6-5.1,2.7-8.2L948,865.1z"/>
				</g>
				<path fill="#FCC994" d="M922,901.7c8.2-2.4,16.6-5.2,23-11c1.5-1.3,2.8-2.8,3.6-4.7c2.3-5.7-2.2-11.6-3.8-17.5
					c-2.2-7.8,0.7-16.2,4.9-23.1c4.2-6.9,9.7-13,13.7-20.1c7.6-13.7,8.7-29.9,9.6-45.5c1-17.1,2-34.3,3-51.4c0.2-4.1,0.4-8.5-1.8-12
					s-7.9-4.9-10.4-1.7c4,3.4,3.7,9.6,3,14.8c-3.3,24.7-8,49.2-14.2,73.4c-2.8,11-6.1,22.2-13,31.1c-5.5,7.1-13.2,12.8-15.8,21.4
					c-2.4,8.1,6.2,18.4,0.8,24.9c-2.9,3.5-11.6,6.7-18.3,9.3c-13.5,5.2-27.9,6.6-41.9,3c-3.4,5.7,0.8,13.5,6.8,16.1s13,1.6,19.5,0.4
					C901.3,907.2,911.7,904.7,922,901.7z"/>
				<g>
					<path fill="#F3BF90" d="M967.3,722.2c4.2,1.2,4.7,5.1,4.4,8.1c-1.1,10.4-1.6,17.2-2.1,23.8c-0.5,6.6-1.1,13.5-2.2,23.9
						c-0.4,3.4-0.7,6.9-1,10.3c-1,10.9-2,22.3-5,32.9c-1.4,4.8-3.2,9.4-5.4,13.8c3.3-6,6.4-12.6,8.3-19.5c3-10.6,4-21.9,5-32.9
						c0.3-3.4,0.6-6.9,1-10.3c1.1-10.5,1.7-17.3,2.2-23.9c0.5-6.6,1-13.4,2.1-23.8c0.3-3-0.2-6.9-4.4-8.1
						c-5.1-1.5-12.9,1.7-16.8,9.3c-0.6,1.2-1.1,2.2-1.5,3.3C956.1,723.2,962.8,720.9,967.3,722.2z"/>
					<path fill="#F3BF90" d="M938.2,864.8c-0.2,1.6,0.3,3.1,0.6,4.2l4.3,14.5c0.2,0.8,0.3,1.6,0.3,2.4c2.5-1.8,3.6-5.1,2.7-8.1
						l-4.3-14.5c-0.3-1.1-0.8-2.5-0.6-4.2c0-0.2,0-0.3,0.1-0.4c-0.2,0.2-0.3,0.5-0.5,0.7C939.7,860.7,938.4,862.4,938.2,864.8z"/>
					<path fill="#F3BF90" d="M802.3,714.9c0.1,0,0.1,0.1,0.2,0.1c2.8,1.5,4.9,4,5.9,7c0,0.1,0.1,0.1,0.1,0.2l21.2,63.5
						c0.3,0.8,0.8,1.5,1.6,1.8c0.7,0.4,1.6,0.5,2.5,0.2c1.7-0.6,2.6-2.4,2-4l-0.5-1.5c-0.4-0.1-0.7-0.2-1.1-0.3
						c-0.7-0.4-1.3-1-1.6-1.8l-21.2-63.5c0-0.1-0.1-0.1-0.1-0.2c-1-3-3.1-5.5-5.9-7c-0.1,0-0.1-0.1-0.2-0.1
						c-2.9-1.5-6.2-1.7-9.3-0.7c-3.1,1-5.6,3.2-7.1,6.1c-0.5,0.9-0.8,1.9-1,2.9c1.4-1.5,3.1-2.6,5.1-3.3
						C796,713.1,799.4,713.4,802.3,714.9z"/>
					<path fill="#F3BF90" d="M878.8,651.3c2.9,1.5,5.1,4,6.1,7.1l42,128.9c0.3,0.8,0.8,1.5,1.6,1.8c0.7,0.4,1.6,0.5,2.5,0.2
						c1.7-0.5,2.6-2.4,2-4l-0.5-1.5c-0.4,0-0.7-0.2-1.1-0.3c-0.7-0.4-1.3-1-1.6-1.8l-42-128.9c-1-3.1-3.2-5.6-6.1-7.1
						c-2.9-1.5-6.2-1.7-9.3-0.7c-4.2,1.4-7.2,4.9-8.1,9c1.4-1.5,3.1-2.6,5.1-3.3C872.5,649.6,875.8,649.9,878.8,651.3z"/>
					<path fill="#F3BF90" d="M843.3,641.9c0.1,0,0.1,0.1,0.2,0.1c2.8,1.5,4.9,4,5.9,7l6.1,18.8c0,0.1,0,0.2,0.1,0.3c0,0,0,0.1,0,0.1
						l31.8,98.8c0.5,1.7,2.3,2.6,4,2.1c1.7-0.5,2.6-2.3,2.1-4l-0.5-1.5c-1.2-0.2-2.2-1-2.6-2.2l-31.8-98.8c0,0,0-0.1,0-0.1
						c0-0.1,0-0.2-0.1-0.3l-6.1-18.8c-1-3-3.1-5.5-5.9-7c-0.1,0-0.1-0.1-0.2-0.1c-2.9-1.5-6.2-1.7-9.3-0.7c-3.1,1-5.6,3.2-7.1,6.1
						c-0.5,0.9-0.8,1.9-1,2.9c1.4-1.5,3.1-2.6,5.1-3.3C837,640.2,840.4,640.5,843.3,641.9z"/>
					<path fill="#F3BF90" d="M816.4,658.8c2.4,1.2,4.4,3.2,5.5,5.6l36.7,111.1c0.3,0.8,0.8,1.5,1.6,1.8c0.7,0.4,1.6,0.5,2.5,0.2
						c1.7-0.6,2.6-2.4,2-4l-0.5-1.5c-0.4-0.1-0.7-0.2-1.1-0.3c-0.7-0.4-1.3-1-1.6-1.8l-36.7-111.1c-1.2-2.4-3.1-4.4-5.5-5.6
						c-2.9-1.5-6.2-1.7-9.3-0.7c-4.2,1.4-7.2,4.9-8.1,9c1.4-1.5,3.1-2.6,5.1-3.3C810.2,657.1,813.5,657.3,816.4,658.8z"/>
				</g>
				<path fill="#AF6E43" d="M947.9,861.5c-0.2-0.6-0.4-1.4-0.4-1.8c0.1-0.6,0.8-1.5,1.3-2.2c7.1-9.4,17-23.8,21.7-40.1
					c3.2-11.2,4.2-22.8,5.2-34.1c0.3-3.4,0.6-6.8,1-10.2c1.1-10.6,1.7-17.5,2.2-24.1c0.5-6.5,1-13.3,2.1-23.6
					c0.8-7.4-2.6-13.1-8.9-14.9c-7.7-2.3-18.9,1.8-24.3,12.6c-3.7,7.4-4.7,12.5-6,19c-0.3,1.6-0.6,3.4-1.1,5.3
					c-1,4.5-5.5,14.2-9.4,18.2l-37.4-114.7c-1.6-4.7-4.9-8.6-9.3-10.8c-4.4-2.2-9.5-2.6-14.2-1.1c-4.4,1.5-7.9,4.4-10.1,8.1
					l-1.8-5.6c-1.6-4.7-4.9-8.6-9.3-10.8c-4.4-2.2-9.5-2.6-14.2-1.1c-4.7,1.6-8.6,4.9-10.8,9.3c-1.4,2.7-2,5.6-2,8.5
					c-4.4-2.2-9.4-2.5-14-1c-9.8,3.2-15.1,13.8-11.9,23.5l10.9,33.4c-4.2-1.8-8.7-2-13.1-0.5c-4.7,1.6-8.6,4.9-10.8,9.3
					c-2.2,4.4-2.6,9.5-1.1,14.2l34.3,103.6c0.9,3,3.5,11.9,7.4,20.5c5.3,12,18,27.1,31,31.5l0.3,0.1c0.8,0.3,1.7,0.6,2.1,0.9
					c0.4,0.4,0.7,1.4,1,2.2c0.9,2.8,2.1,7.3,3.3,11.6c0.4,1.6,0.9,3.2,1.3,4.7c1,3.8,3.6,6.9,6.9,8.6c1.7,0.9,3.6,1.4,5.6,1.5
					c14.9,0.9,44-0.6,71.7-20.5c4.7-3.4,6.8-9.5,5.1-15.2L947.9,861.5z M943.3,885.9c-26.1,18.7-53.5,20.1-67.6,19.3
					c-3.2-0.2-5.9-2.4-6.7-5.5c-0.4-1.5-0.8-3.1-1.3-4.7c-1.2-4.4-2.4-9-3.4-11.9c-0.5-1.4-1.1-3.3-2.7-4.8
					c-1.4-1.3-3.1-1.9-4.5-2.4l-0.3-0.1c-10.9-3.7-22.4-17.1-27.2-28c-1.6-3.6-3-7.3-4.1-10.6c0-0.2-0.1-0.5-0.1-0.7l-2.8-8.5
					c-0.2-0.5-0.2-0.9-0.3-0.9c-0.1-0.2-0.1-0.4-0.2-0.6l-33.9-102.2c-1-3.1-0.8-6.4,0.7-9.3c1.5-2.9,4-5.1,7.1-6.1
					c3.1-1,6.4-0.8,9.3,0.7c0.1,0,0.1,0.1,0.2,0.1c2.8,1.5,4.9,4,5.9,7c0,0.1,0.1,0.1,0.1,0.2l21.1,63.2c0.3,0.8,0.8,1.5,1.6,1.8
					c0.7,0.4,1.6,0.5,2.5,0.2c1.7-0.6,2.6-2.4,2-4l-36.4-110.1c-2.1-6.4,1.4-13.4,7.8-15.5c3.1-1,6.4-0.8,9.3,0.7
					c2.4,1.2,4.4,3.2,5.5,5.6l36.7,111.1c0.3,0.8,0.8,1.5,1.6,1.8c0.7,0.4,1.6,0.5,2.5,0.2c1.7-0.6,2.6-2.4,2-4l-36-108.9
					c0-0.3-0.1-0.5-0.1-0.8c-0.2-0.6-0.5-1.3-0.7-1.9l-1.8-5.3c-1-3.1-0.8-6.4,0.7-9.3c1.5-2.9,4-5.1,7.1-6.1c3.1-1,6.4-0.8,9.3,0.7
					c0.1,0,0.1,0.1,0.2,0.1c2.8,1.5,4.9,4,5.9,7l6.1,18.8c0,0.1,0,0.2,0.1,0.3c0,0,0,0.1,0,0.1l31.8,98.8c0.5,1.7,2.3,2.6,4,2.1
					c1.7-0.5,2.6-2.3,2.1-4l-31.9-99.2c-1.9-6.3,1.5-13.1,7.9-15.2c3.1-1,6.4-0.8,9.3,0.7c2.9,1.5,5.1,4,6.1,7.1l42,128.9
					c0.3,0.8,0.8,1.5,1.6,1.8c0.7,0.4,1.6,0.5,2.5,0.2c1.7-0.5,2.6-2.4,2-4l-2.5-7.7c7-4.8,12.6-18.9,13.5-23.4
					c0.4-2,0.8-3.7,1.1-5.4c1.2-6.5,2.1-10.7,5.4-17.3c3.9-7.7,11.7-10.8,16.8-9.3c4.2,1.2,4.7,5.1,4.4,8.1
					c-1.1,10.4-1.6,17.2-2.1,23.8c-0.5,6.6-1.1,13.5-2.2,23.9c-0.4,3.4-0.7,6.9-1,10.3c-1,10.9-2,22.3-5,32.9
					c-4.4,15.3-13.9,29.1-20.6,38.1c-1,1.3-2.3,3.1-2.5,5.4c-0.2,1.6,0.3,3.1,0.6,4.2l4.3,14.5C946.9,880.8,945.8,884.1,943.3,885.9
					z"/>
			</g>
			
				<line fill="none" stroke="#FFFDEB" stroke-width="6" stroke-linecap="round" stroke-miterlimit="10" x1="807.1" y1="585.8" x2="818" y2="599"/>
			
				<line fill="none" stroke="#FFFDEB" stroke-width="6" stroke-linecap="round" stroke-miterlimit="10" x1="742.7" y1="666.6" x2="756.7" y2="672.5"/>
			
				<line fill="none" stroke="#FFFDEB" stroke-width="6" stroke-linecap="round" stroke-miterlimit="10" x1="733.4" y1="752.2" x2="748.6" y2="748.7"/>
			
				<line fill="none" stroke="#FFFDEB" stroke-width="6" stroke-linecap="round" stroke-miterlimit="10" x1="917.6" y1="546.5" x2="917.5" y2="558.8"/>
			<g>
				<path fill="#B72E3E" d="M962.7,1300.2l118.1-33.5L970.1,876.4c-1.3-4.6-6.1-7.3-10.7-6L858,899.2c-4.6,1.3-7.3,6.1-6,10.7
					L962.7,1300.2z"/>
				<path fill="#E24462" d="M1069.8,1269.8l11-3.1L970.1,876.4c-1.3-4.6-6.1-7.3-10.7-6l-2.6,0.7L1069.8,1269.8z"/>
				<path fill="#A01A2D" d="M964,1299.9l22.5-6.4l-113-398.6l-14.2,4c-4.6,1.3-7.3,6.1-6,10.7L964,1299.9z"/>
				<path fill="#540012" d="M848.4,907.8c-1.3-4.6,1.4-9.4,6-10.7l107.2-30.4c4.6-1.3,9.4,1.4,10.7,6l112.3,396.1l-123.8,35.1
					L848.4,907.8z M968.1,880.1c-1.3-4.6-6.1-7.3-10.7-6l-95.6,27.1c-4.6,1.3-7.3,6.1-6,10.7l109,384.5l112.3-31.8L968.1,880.1z"/>
				<g>
					<circle fill="#FFFFFF" cx="883.9" cy="930.8" r="10.3"/>
					<path fill="#540012" d="M871.6,934.3c-1.9-6.8,2-13.9,8.8-15.8c6.8-1.9,13.9,2,15.8,8.8c1.9,6.8-2,13.9-8.8,15.8
						C880.6,945,873.5,941.1,871.6,934.3z M876.4,932.9c1.2,4.1,5.5,6.5,9.6,5.4c4.1-1.2,6.5-5.5,5.4-9.6c-1.2-4.1-5.5-6.5-9.6-5.4
						C877.6,924.5,875.2,928.8,876.4,932.9z"/>
				</g>
				<g>
					<circle fill="#FFFFFF" cx="893.9" cy="966.1" r="10.3"/>
					<path fill="#540012" d="M881.6,969.6c-1.9-6.8,2-13.9,8.8-15.8c6.8-1.9,13.9,2,15.8,8.8c1.9,6.8-2,13.9-8.8,15.8
						C890.6,980.3,883.5,976.3,881.6,969.6z M886.4,968.2c1.2,4.1,5.5,6.5,9.6,5.4c4.1-1.2,6.5-5.5,5.4-9.6
						c-1.2-4.1-5.5-6.5-9.6-5.4C887.6,959.8,885.2,964.1,886.4,968.2z"/>
				</g>
			</g>
		</g>
		<g>
			<g>
				<path fill="#FCC994" d="M58.1,590.7l9.2-10.5c0.4-0.5,0.9-1,1-1.3c0.2-0.5-0.1-1.6-0.2-2.3c-2.3-10.6-5.1-26.6-2.8-42.2
					c1.6-10.7,5.2-20.9,8.7-30.7c1-2.9,2.1-6,3.1-9c3.1-9.3,5.3-15.3,7.5-21.2c2.1-5.7,4.3-11.6,7.3-20.7c2.2-6.5,7.3-10,13.3-9.2
					c7.4,1.1,15.2,8.8,15.6,20c0.4,9.6-2.3,27.5-4.3,36.2c0,0.8,1,3.3,2,5.6l75.4-81.9c6.5-7,17.4-7.4,24.4-0.9
					c3.1,2.8,4.9,6.6,5.4,10.7l3.7-4c6.5-7,17.4-7.4,24.4-0.9c5.6,5.2,7,13.3,3.9,20c4.4-0.1,8.8,1.4,12.2,4.6
					c3.4,3.1,5.3,7.4,5.5,12c0.2,4.6-1.5,9-4.6,12.4l-15.7,16.9c4,0.1,8,1.6,11.2,4.6c7,6.5,7.4,17.4,0.9,24.4l-75.2,81.1
					c-1.9,2.2-7.6,8.6-14.1,14.4c-9.1,8.1-25.6,15.9-38.3,14.6l-0.3,0c-0.8-0.1-1.6-0.2-2.1,0c-0.5,0.2-1.2,0.9-1.7,1.5
					c-1.8,2-4.6,5.3-7.2,8.4c-1,1.2-2,2.4-2.9,3.5c-2.3,2.8-5.7,4.4-9.2,4.6c-1.8,0.1-3.6-0.2-5.3-0.8c-12.9-5-36.8-17.5-52.5-44.9
					C53.9,600.8,54.5,594.8,58.1,590.7z"/>
				<path fill="#AF6E43" d="M56.6,605.5c15.7,27.4,39.6,39.9,52.5,44.9c1.7,0.7,3.5,0.9,5.3,0.8c3.5-0.2,6.8-1.8,9.2-4.6
					c1-1.1,1.9-2.3,2.9-3.5c2.6-3.2,5.4-6.5,7.2-8.4c0.5-0.6,1.2-1.3,1.7-1.5c0.4-0.2,1.3-0.1,2.1,0l0.3,0
					c12.7,1.3,29.2-6.5,38.3-14.6c6.5-5.8,12.2-12.2,14.1-14.4l75.2-81.1c6.5-7,6.1-17.9-0.9-24.4c-3.2-3-7.2-4.5-11.2-4.6
					l15.7-16.9c3.1-3.4,4.8-7.8,4.6-12.4c-0.2-4.6-2.1-8.9-5.5-12c-3.4-3.2-7.9-4.7-12.2-4.6c3.1-6.6,1.7-14.7-3.9-20
					c-7-6.5-17.9-6.1-24.4,0.9l-3.7,4c-0.5-4.1-2.3-7.9-5.4-10.7c-7-6.5-17.9-6.1-24.4,0.9l-75.4,81.9c-1-2.3-2.1-4.8-2-5.6
					c2-8.6,4.6-26.6,4.3-36.2c-0.4-11.2-8.3-18.9-15.6-20c-6-0.9-11.1,2.6-13.3,9.2c-3.1,9.1-5.2,15-7.3,20.7
					c-2.1,5.8-4.3,11.8-7.5,21.2c-1,3-2.1,6-3.1,9c-3.5,9.9-7.1,20.1-8.7,30.7c-2.3,15.5,0.5,31.5,2.8,42.2c0.2,0.8,0.4,1.8,0.2,2.3
					c-0.1,0.4-0.6,0.9-1,1.3l-9.2,10.5C54.5,594.8,53.9,600.8,56.6,605.5z M62.6,594.6l9.2-10.5c0.7-0.8,1.6-1.9,2.1-3.3
					c0.7-2.1,0.3-4.1,0-5.5c-2.2-10.2-4.9-25.4-2.7-40c1.5-10.1,5-20,8.4-29.6c1.1-3,2.1-6,3.2-9.1c3.1-9.3,5.3-15.2,7.4-21
					c2.1-5.8,4.3-11.7,7.4-20.9c0.9-2.7,2.8-5.7,6.8-5.2c4.8,0.7,10.3,6.4,10.5,14.3c0.3,8.7-2.2,26.1-4.1,34.7
					c-0.6,2.5,0.8,5.5,2.8,10.1c0.5,1,0.9,2.1,1.4,3.3c0,0,0,0,0,0c3.5,8.3,7.3,19.6,2.6,30.8c-0.6,1.5,0.1,3.2,1.6,3.9
					c1.5,0.6,3.2-0.1,3.9-1.6c5.3-12.5,1.7-24.9-1.9-33.7l77.2-83.8c4.2-4.6,11.4-4.9,16-0.6c2.2,2.1,3.5,4.9,3.6,7.9
					c0.1,2.9-0.9,5.8-2.9,8L150,514c-1.1,1.2-1,3.1,0.2,4.2c1.2,1.1,3.1,1,4.2-0.2l64.9-71c0,0,0.1,0,0.1-0.1
					c0.1-0.1,0.1-0.1,0.2-0.2l12.4-13.5c4.2-4.6,11.4-4.8,16-0.6c4.6,4.3,4.9,11.4,0.6,16l-3.5,3.8c-0.5,0.4-0.9,0.8-1.3,1.3
					c-0.2,0.2-0.3,0.4-0.4,0.6l-72.2,77.9c-1.1,1.2-1,3.1,0.2,4.2c0.6,0.6,1.4,0.8,2.2,0.8c0.7,0,1.5-0.4,2-0.9l73.7-79.5
					c4.3-3.6,10.7-3.5,15,0.4c4.6,4.3,4.9,11.4,0.6,16l-73.1,78.7c-1.1,1.2-1,3.1,0.2,4.2c0.6,0.6,1.4,0.8,2.2,0.8
					c0.7,0,1.5-0.4,2-0.9l48.5-52.2c0,0,0.1-0.1,0.1-0.1c4.3-4.6,11.4-4.9,16-0.6c4.6,4.3,4.9,11.4,0.6,16l-74.3,80.2
					c-0.2,0.1-0.3,0.3-0.5,0.4c0,0-0.2,0.3-0.6,0.7l-5.6,6.1c-0.2,0.2-0.3,0.3-0.4,0.5c-2.2,2.3-4.8,4.9-7.6,7.3
					c-8.3,7.3-23.2,14.2-33.8,13.1l-0.3,0c-1.3-0.1-3-0.3-4.7,0.3c-1.9,0.7-3.2,2-4.1,3c-1.9,2.1-4.7,5.5-7.4,8.7
					c-1,1.2-2,2.4-2.9,3.5c-1.9,2.3-5,3.1-7.8,2c-12.2-4.7-34.7-16.5-49.5-42.3C60.3,600,60.6,596.8,62.6,594.6z"/>
				<g>
					<path fill="#EEB37F" d="M187.8,551.5c-1.2-1.1-1.3-3-0.2-4.2l73.1-78.7c3.2-3.5,3.8-8.4,2-12.5c0.4,0.3,0.8,0.6,1.2,1
						c4.6,4.3,4.9,11.4,0.6,16l-72.9,78.5c-0.5,0.4-1.1,0.6-1.7,0.6C189.2,552.4,188.4,552.1,187.8,551.5z"/>
					<path fill="#EEB37F" d="M167.3,531.8c-1.2-1.1-1.3-3-0.2-4.2l72.2-77.9c0.1-0.2,0.3-0.4,0.4-0.6c0.4-0.5,0.9-0.9,1.3-1.3
						l3.5-3.8c3.2-3.5,3.8-8.4,2-12.4c0.4,0.3,0.8,0.6,1.2,1c4.6,4.3,4.9,11.4,0.6,16l-3.5,3.8c-0.5,0.4-0.9,0.8-1.3,1.3
						c-0.2,0.2-0.3,0.4-0.4,0.6L171.1,532c-0.5,0.4-1.1,0.6-1.7,0.6C168.7,532.7,167.9,532.4,167.3,531.8z"/>
					<path fill="#EEB37F" d="M146.3,513.6c-1.2-1.1-1.3-3-0.2-4.2l65.1-71.2c1.9-2.2,3-5,2.9-8c-0.1-1.5-0.4-3-1-4.3
						c0.4,0.3,0.8,0.6,1.2,0.9c2.2,2.1,3.5,4.9,3.6,7.9c0.1,2.9-0.9,5.8-2.9,8l-65,71C149,514.6,147.4,514.6,146.3,513.6z"/>
					<path fill="#EEB37F" d="M115.3,542.1c-1.5-0.6-2.2-2.4-1.6-3.9c4.7-11.2,0.9-22.5-2.6-30.8c0,0,0,0,0,0c-0.5-1.1-1-2.2-1.4-3.3
						c-2-4.6-3.3-7.6-2.8-10.1c1.9-8.6,4.4-26,4.1-34.7c-0.1-2.9-0.9-5.5-2.1-7.7c3.1,2.5,5.7,6.8,5.9,12.2
						c0.3,8.7-2.2,26.1-4.1,34.7c-0.6,2.5,0.8,5.5,2.8,10.1c0.5,1,0.9,2.1,1.4,3.3c0,0,0,0,0,0c3.4,8.1,7.1,19.1,2.9,30.1
						C117,542.4,116.1,542.4,115.3,542.1z"/>
					<path fill="#EEB37F" d="M107.4,640.3c2.7,1.1,5.9,0.3,7.8-2c0.9-1.1,1.9-2.3,2.9-3.5c2.7-3.2,5.5-6.6,7.4-8.7
						c0.9-1,2.2-2.4,4.1-3c1.7-0.6,3.4-0.4,4.7-0.3l0.3,0c10.6,1.1,25.5-5.8,33.8-13.1c2.7-2.4,5.3-5,7.6-7.3
						c0.1-0.2,0.2-0.4,0.4-0.5l5.6-6.1c0.3-0.4,0.5-0.6,0.6-0.7c0.1-0.2,0.3-0.3,0.5-0.4l74.3-80.2c3.2-3.5,3.8-8.4,2-12.4
						c0.4,0.3,0.8,0.6,1.2,1c4.6,4.3,4.9,11.4,0.6,16l-74.3,80.2c-0.2,0.1-0.3,0.3-0.5,0.4c0,0-0.2,0.3-0.6,0.7l-5.6,6.1
						c-0.2,0.2-0.3,0.3-0.4,0.5c-2.2,2.3-4.8,4.9-7.6,7.3c-8.3,7.3-23.2,14.2-33.8,13.1l-0.3,0c-1.3-0.1-3-0.3-4.7,0.3
						c-1.9,0.7-3.2,2-4.1,3c-1.9,2.1-4.7,5.5-7.4,8.7c-1,1.2-2,2.4-2.9,3.5c-1.9,2.3-5,3.1-7.8,2c-10.2-4-27.7-12.9-41.8-30.9
						C82.7,628.9,98.1,636.7,107.4,640.3z"/>
				</g>
				<g>
					<path fill="#FFE4CB" d="M246.4,459.5l-1.7,1.8c0.1-0.2,0.2-0.4,0.4-0.6C245.5,460.3,246,459.9,246.4,459.5z"/>
					<path fill="#FFE4CB" d="M233.4,440.2L221,453.8c-0.1,0.1-0.1,0.1-0.2,0.2c0,0-0.1,0-0.1,0.1l-64.9,71c-1.1,1.2-3,1.3-4.2,0.2
						c-1.2-1.1-1.3-3-0.2-4.2l2.6-2.9c0.1-0.1,0.1-0.1,0.2-0.2l64.9-71c0,0,0.1,0,0.1-0.1c0.1-0.1,0.1-0.1,0.2-0.2l12.4-13.5
						c4.2-4.6,11.4-4.8,16-0.6c2.7,2.5,3.9,6.1,3.6,9.5c-0.5-0.9-1.2-1.7-2-2.5C244.8,435.4,237.6,435.7,233.4,440.2z"/>
					<path fill="#FFE4CB" d="M62.6,594.6l9.2-10.5c0.7-0.8,1.6-1.9,2.1-3.3c0.7-2.1,0.3-4.1,0-5.5c-2.2-10.2-4.9-25.4-2.7-40
						c1.5-10.1,5-20,8.4-29.6c1.1-3,2.1-6,3.2-9.1c3.1-9.3,5.3-15.2,7.4-21c2.1-5.8,4.3-11.7,7.4-20.9c0.9-2.7,2.8-5.7,6.8-5.2
						c4.8,0.7,10.3,6.4,10.5,14.3c0,0.1,0,0.3,0,0.4c-2-4.4-5.6-7.3-9-7.7c-4-0.6-5.9,2.5-6.8,5.2c-3.1,9.2-5.3,15.1-7.4,20.9
						c-2.1,5.8-4.3,11.7-7.4,21c-1,3-2.1,6.1-3.2,9.1c-3.4,9.6-6.9,19.5-8.4,29.6c-2.2,14.6,0.5,29.8,2.7,40c0.3,1.5,0.8,3.5,0,5.5
						c-0.5,1.4-1.4,2.5-2.1,3.3l-9.2,10.5c-0.7,0.8-1.1,1.6-1.4,2.6c-0.3-0.6-0.7-1.1-1-1.7C60.3,600,60.6,596.8,62.6,594.6z"/>
					<path fill="#FFE4CB" d="M245.9,510.7c0,0-0.1,0.1-0.1,0.1L197.3,563c-0.5,0.6-1.3,0.9-2,0.9c-0.8,0-1.6-0.2-2.2-0.8
						c-1.2-1.1-1.3-3-0.2-4.2l51.3-55.2c0,0,0,0,0.1-0.1c4.3-4.6,11.4-4.9,16-0.6c2.7,2.5,3.9,6.1,3.6,9.5c-0.5-0.9-1.2-1.7-2-2.5
						C257.4,505.8,250.2,506.1,245.9,510.7z"/>
					<path fill="#FFE4CB" d="M199.9,434.5l-76.5,83.1c-0.7-2.2-1.5-4.4-2.2-6.3l77.2-83.8c4.2-4.6,11.4-4.9,16-0.6
						c2.2,2.1,3.5,4.9,3.6,7.9c0,0.5,0,1.1-0.1,1.6c-0.5-0.9-1.2-1.7-2-2.5C211.3,429.7,204.1,429.9,199.9,434.5z"/>
				</g>
			</g>
			<path opacity="0.48" fill="#C88B5C" d="M94.4,637.6c0.2-0.5-0.1-1.6-0.2-2.3c-2.3-10.6-5.1-26.6-2.8-42.2
				c1.6-10.7,5.2-20.9,8.7-30.7c1-2.9,2.1-6,3.1-9c3.1-9.3,5.3-15.4,7.5-21.2c2.1-5.7,4.3-11.6,7.3-20.7c2.2-6.5,7.3-10,13.3-9.2
				c7.4,1.1,15.2,8.8,15.6,20c0.3,7.7-0.9,12.4-2.3,18.3c-0.4,1.5-0.8,3.1-1.2,4.9c-0.9,4.2-0.9,14.1,0.9,19l75.8-82.2
				c3.1-3.4,7.4-5.3,12-5.5c4.6-0.2,9,1.5,12.4,4.6c3.2,2.9,5,6.8,5.4,10.7l3.7-4c2.7-3,6.4-4.8,10.3-5.4l-10.8,11.6
				c4,0.1,8,1.6,11.2,4.6c7,6.5,7.4,17.4,0.9,24.4l-75.2,81.1c-1.9,2.2-7.6,8.6-14.1,14.4c-9.1,8.1-25.6,15.9-38.3,14.6l-0.3,0
				c-0.8-0.1-1.6-0.2-2.1,0c-0.5,0.2-1.2,0.9-1.7,1.5c-1.8,2-4.6,5.3-7.2,8.4c-1,1.2-2,2.4-2.9,3.5c-2.3,2.8-5.7,4.4-9.2,4.6
				c-1.8,0.1-3.6-0.2-5.3-0.8c-4.8-1.8-11-4.7-17.8-9l2.2-2.5C93.9,638.4,94.3,637.9,94.4,637.6z"/>
			<g>
				<path fill="#0B78AF" d="M-134.3,961.5l-88.4-81.2L43.6,590.2c4.3-4.6,11.5-4.9,16.1-0.7l71.6,65.8c4.6,4.3,4.9,11.5,0.7,16.1
					L-134.3,961.5z"/>
				<path fill="#1DA7DD" d="M-214.6,887.8l-8.2-7.5L43.9,589.9c4.1-4.4,11-4.7,15.4-0.7l0.2,0.1L-214.6,887.8z"/>
				<path fill="#035891" d="M-135.3,960.6l-16.8-15.5l274-298.5l8.5,7.8c4.6,4.3,4.9,11.5,0.7,16.1L-135.3,960.6z"/>
				<path fill="#01326D" d="M-134.2,965.6l-92.7-85.1L43.6,585.9c4.2-4.5,11.2-4.8,15.7-0.7l76.3,70.1c4.5,4.2,4.8,11.2,0.7,15.7
					L-134.2,965.6z M-218.6,880.1l84.1,77.2l262.5-286c4.2-4.5,3.9-11.6-0.7-15.7l-67.7-62.1c-4.5-4.2-11.6-3.9-15.7,0.7
					L-218.6,880.1z"/>
				<g>
					<circle fill="#FFFFFF" cx="97" cy="673.5" r="10"/>
					<path fill="#01326D" d="M88.5,682.7c-5.1-4.7-5.4-12.6-0.8-17.7c4.7-5.1,12.6-5.4,17.7-0.8s5.4,12.6,0.8,17.7
						C101.5,687,93.6,687.4,88.5,682.7z M102.1,667.9c-3.1-2.8-7.9-2.6-10.7,0.5c-2.8,3.1-2.6,7.9,0.5,10.7
						c3.1,2.8,7.9,2.6,10.7-0.5S105.2,670.7,102.1,667.9z"/>
				</g>
				<g>
					<circle fill="#FFFFFF" cx="72.8" cy="699.9" r="10"/>
					<path fill="#01326D" d="M64.3,709.1c-5.1-4.7-5.4-12.6-0.8-17.6c4.7-5.1,12.6-5.4,17.7-0.8s5.4,12.6,0.8,17.7
						C77.3,713.4,69.4,713.8,64.3,709.1z M77.9,694.3c-3.1-2.8-7.9-2.6-10.7,0.5c-2.8,3.1-2.6,7.9,0.5,10.7
						c3.1,2.8,7.9,2.6,10.7-0.5C81.2,702,81,697.1,77.9,694.3z"/>
				</g>
			</g>
			<g>
				<path fill="#FDEDE4" d="M105.3,652c0.4-0.5,0.9-1,1-1.4c0.2-0.5-0.1-1.7-0.2-2.5c-2.4-11.2-5.4-28.1-2.9-44.5
					c1.7-11.3,5.5-22,9.2-32.4c1.1-3.1,2.2-6.3,3.3-9.5c3.3-9.9,5.6-16.2,7.9-22.3c2.2-6,4.5-12.3,7.7-21.9c2.3-6.9,7.7-10.6,14-9.7
					c7.8,1.1,16.1,9.3,16.5,21.1c0.3,8.1-0.9,13-2.4,19.3c-0.4,1.6-0.8,3.3-1.2,5.1c-1,4.4-0.9,14.9,0.9,20l80-86.8
					c3.3-3.6,7.8-5.6,12.7-5.8c4.9-0.2,9.5,1.5,13.1,4.8c3.3,3.1,5.2,7.1,5.7,11.3l3.9-4.3c3.3-3.6,7.8-5.6,12.7-5.8
					c4.9-0.2,9.5,1.5,13.1,4.8c3.6,3.3,5.6,7.8,5.8,12.7c0.1,2.9-0.5,5.8-1.7,8.4c4.8-0.1,9.4,1.6,12.9,4.8c7.4,6.8,7.8,18.4,1,25.8
					l-23.3,25.4c4.4,0.1,8.6,1.8,11.9,4.8c3.6,3.3,5.6,7.8,5.8,12.7s-1.5,9.5-4.8,13.1L235,677.4c-2,2.3-8,9.1-14.9,15.2
					c-9.6,8.5-27.1,16.8-40.4,15.4l-0.3,0c-0.9-0.1-1.7-0.2-2.2,0c-0.5,0.2-1.2,0.9-1.8,1.6c-1.9,2.1-4.8,5.6-7.6,9
					c-1,1.2-2.1,2.5-3,3.7c-2.5,3-6,4.7-9.7,4.9c-1.9,0.1-3.8-0.2-5.6-0.9c-13.6-5.3-38.9-18.5-55.4-47.4c-2.8-5-2.2-11.2,1.6-15.6
					L105.3,652z"/>
				<g>
					<path fill="#F5D3AB" d="M103.7,655.2c0.7-0.8,1.7-2,2.2-3.5c0.8-2.2,0.3-4.3,0-5.8c-2.3-10.8-5.2-26.8-2.9-42.2
						c1.6-10.7,5.3-21.1,8.9-31.3c1.1-3.1,2.3-6.4,3.3-9.6c3.3-9.8,5.6-16.1,7.8-22.2c2.2-6.1,4.5-12.3,7.8-22
						c0.9-2.8,3-6.1,7.2-5.5c5.1,0.7,10.8,6.7,11.1,15.1c0.3,7.2-0.7,11.4-2.3,17.6c-0.4,1.6-0.8,3.3-1.2,5.2
						c-1,4.3-1.8,19.2,2.5,26.3l-5.3,5.8c-1.2,1.3-1.1,3.2,0.2,4.4c0.6,0.6,1.5,0.9,2.3,0.8c0.8,0,1.6-0.4,2.1-1l89.8-97.5
						c2.2-2.3,5.1-3.7,8.3-3.8c3.2-0.1,6.2,1,8.6,3.2c4.8,4.4,5.1,11.9,0.8,16.7l-68.8,75.2c-1.2,1.3-1.1,3.3,0.2,4.4
						c1.3,1.2,3.3,1.1,4.4-0.2l68.5-74.9c0,0,0.1,0,0.1-0.1c0.1-0.1,0.1-0.1,0.2-0.2l13.1-14.3c2.1-2.3,5-3.6,8.1-3.8
						c0.1,0,0.1,0,0.2,0c3.2-0.1,6.2,1,8.6,3.2c2.3,2.2,3.7,5.1,3.8,8.3c0.1,3.2-1,6.3-3.2,8.6l-3.7,4c-0.5,0.4-1,0.9-1.4,1.4
						c-0.2,0.2-0.3,0.4-0.4,0.6l-76.3,82.2c-1.2,1.3-1.1,3.2,0.2,4.4c0.6,0.6,1.5,0.9,2.3,0.8c0.8,0,1.6-0.4,2.1-1l77.8-83.9
						c2-1.7,4.5-2.7,7.2-2.8c3.2-0.1,6.3,1,8.6,3.2c4.8,4.5,5.1,12.1-0.9,18.7L228.5,623c0.4-0.5,0.5,1.4,1.7,2.6
						c0.6,0.6,1.5,0.9,2.3,0.8c0.8,0,1.5-0.4,2.1-1l49.6-53.3c0,0,0.1-0.1,0.1-0.1c2.1-2.3,5-3.7,8.1-3.8c0.1,0,0.1,0,0.2,0
						c3.2-0.1,6.2,1,8.6,3.2c2.3,2.2,3.7,5.1,3.8,8.3c0.1,3.2-1,6.3-3.2,8.6l-76.8,82.8c-0.2,0.1-0.3,0.3-0.5,0.5
						c0,0-0.2,0.3-0.6,0.7l-5.9,6.4c-0.2,0.2-0.3,0.4-0.4,0.6c-2.3,2.4-5.1,5.2-8,7.7c-8.7,7.7-24.5,15-35.6,13.9l-0.3,0
						c-1.4-0.2-3.1-0.3-4.9,0.3c-2,0.7-3.4,2.2-4.3,3.2c-2.1,2.2-5,5.8-7.9,9.2c-1,1.2-2,2.5-3,3.6c-2,2.4-5.3,3.3-8.2,2.1
						c-12.8-5-36.7-17.4-52.3-44.7c-1.5-2.7-1.2-6,0.9-8.4L103.7,655.2z"/>
				</g>
				<path fill="#FCC994" d="M111.9,698.3c-6.4-5.5-12.7-11.4-16-19.1c-0.8-1.8-1.4-3.7-1.3-5.6c0.3-6,6.6-9.4,10.5-14
					c5.1-6,6-14.7,5-22.5c-0.9-7.9-3.4-15.5-4-23.4c-1.2-15.3,4.4-30.1,10-44.4c6.1-15.6,12.1-31.3,18.2-46.9
					c1.5-3.8,3.1-7.7,6.5-9.9c3.4-2.2,9-1.2,10,2.7c-5,1.4-7.2,7-8.7,12c-7.2,23.3-12.9,47-17.2,71c-2,10.9-3.6,22.2-1.1,33
					c2,8.5,6.5,16.8,5.3,25.4c-1.1,8.2-13,13.8-10.9,21.8c1.1,4.3,7.6,10.7,12.5,15.7c9.9,10.1,22.1,17.2,36.1,19.7
					c0.8,6.4-6.2,11.7-12.7,11.6s-12.3-3.8-17.5-7.6C128.1,711.7,119.8,705.2,111.9,698.3z"/>
				<g>
					<path fill="#F3BF90" d="M144.7,520.2c-4.2-0.6-6.3,2.6-7.2,5.5c-3.3,9.7-5.6,16-7.8,22c-2.2,6.1-4.5,12.4-7.8,22.2
						c-1.1,3.2-2.2,6.4-3.3,9.6c-3.6,10.1-7.3,20.6-8.9,31.3c-0.7,4.8-0.9,9.7-0.8,14.4c-0.5-6.7-0.5-13.7,0.5-20.7
						c1.6-10.7,5.3-21.1,8.9-31.3c1.1-3.1,2.3-6.4,3.3-9.6c3.3-9.8,5.6-16.1,7.8-22.2c2.2-6.1,4.5-12.3,7.8-22
						c0.9-2.8,3-6.1,7.2-5.5c5.1,0.7,10.8,6.7,11.1,15.1c0,1.3,0.1,2.4,0,3.5C154.2,525.7,149.2,520.9,144.7,520.2z"/>
					<path fill="#F3BF90" d="M112.6,658.9c-0.5,1.5-1.5,2.6-2.2,3.5l-9.7,11.1c-0.5,0.6-1,1.3-1.3,2c-1.5-2.6-1.1-6,0.9-8.3
						l9.7-11.1c0.7-0.8,1.7-2,2.2-3.5c0-0.1,0.1-0.3,0.1-0.4c0.1,0.3,0.1,0.6,0.2,0.8C112.8,654.6,113.3,656.7,112.6,658.9z"/>
					<path fill="#F3BF90" d="M294.4,580.9c-0.1,0-0.1,0-0.2,0c-3.1,0.2-6,1.5-8.1,3.8c0,0-0.1,0.1-0.1,0.1l-44.7,47.9
						c-0.6,0.6-1.3,1-2.1,1c-0.8,0-1.6-0.2-2.3-0.8c-1.3-1.2-1.3-3.2-0.2-4.4l1.1-1.1c0.3,0.1,0.7,0.2,1.1,0.1c0.8,0,1.5-0.4,2.1-1
						l44.7-47.9c0,0,0.1-0.1,0.1-0.1c2.1-2.3,5-3.7,8.1-3.8c0.1,0,0.1,0,0.2,0c3.2-0.1,6.2,1,8.6,3.2c2.3,2.2,3.7,5.1,3.8,8.3
						c0,1-0.1,2-0.3,3c-0.6-1.9-1.7-3.6-3.2-5C300.7,581.9,297.6,580.7,294.4,580.9z"/>
					<path fill="#F3BF90" d="M252.2,493.2c-3.2,0.1-6.2,1.5-8.3,3.8l-89.8,97.5c-0.6,0.6-1.3,1-2.1,1c-0.8,0-1.6-0.2-2.3-0.8
						c-1.3-1.2-1.4-3.1-0.2-4.4l1.1-1.1c0.4,0.1,0.7,0.2,1.1,0.1c0.8,0,1.6-0.4,2.1-1l89.8-97.5c2.2-2.3,5.1-3.7,8.3-3.8
						c3.2-0.1,6.2,1,8.6,3.2c3.2,3,4.4,7.3,3.6,11.3c-0.6-1.9-1.7-3.6-3.2-5C258.5,494.3,255.4,493.1,252.2,493.2z"/>
					<path fill="#F3BF90" d="M287.6,499.3c-0.1,0-0.1,0-0.2,0c-3.1,0.2-6,1.5-8.1,3.8l-13.1,14.3c-0.1,0.1-0.1,0.1-0.2,0.2
						c0,0-0.1,0-0.1,0.1l-68.5,74.9c-1.2,1.3-3.1,1.4-4.4,0.2c-1.3-1.2-1.4-3.1-0.2-4.4l1.1-1.2c1.1,0.3,2.4,0.1,3.2-0.9l68.5-74.9
						c0,0,0.1,0,0.1-0.1c0.1-0.1,0.1-0.1,0.2-0.2l13.1-14.3c2.1-2.3,5-3.6,8.1-3.8c0.1,0,0.1,0,0.2,0c3.2-0.1,6.2,1,8.6,3.2
						c2.3,2.2,3.7,5.1,3.8,8.3c0,1-0.1,2-0.3,3c-0.6-1.9-1.7-3.6-3.2-5C293.9,500.3,290.8,499.2,287.6,499.3z"/>
					<path fill="#F3BF90" d="M304.6,525.2c-2.7,0.1-5.2,1.1-7.2,2.8l-77.8,83.9c-0.6,0.6-1.3,1-2.1,1c-0.8,0-1.6-0.2-2.3-0.8
						c-1.3-1.2-1.3-3.2-0.2-4.4l1.1-1.1c0.3,0.1,0.7,0.2,1.1,0.1c0.8,0,1.6-0.4,2.1-1l77.8-83.9c2-1.7,4.5-2.7,7.2-2.8
						c3.2-0.1,6.3,1,8.6,3.2c3.2,3,4.4,7.3,3.6,11.3c-0.6-1.9-1.7-3.6-3.2-5C310.9,526.2,307.8,525.1,304.6,525.2z"/>
				</g>
				<path fill="#AF6E43" d="M95.6,663.1c-3.8,4.4-4.4,10.6-1.6,15.6c16.5,28.9,41.8,42.1,55.4,47.4c1.8,0.7,3.7,1,5.6,0.9
					c3.7-0.2,7.2-1.9,9.7-4.9c1-1.2,2-2.4,3-3.7c2.8-3.4,5.7-6.9,7.6-9c0.6-0.6,1.3-1.4,1.8-1.6c0.5-0.2,1.4-0.1,2.2,0l0.3,0
					c13.4,1.4,30.8-6.9,40.4-15.4c6.9-6.1,12.9-12.9,14.9-15.2l72.7-78.2c3.3-3.6,5-8.2,4.8-13.1c-0.2-4.9-2.3-9.4-5.8-12.7
					c-3.3-3-7.4-4.7-11.9-4.8l23.3-25.3c6.8-7.4,6.4-18.9-1-25.8c-3.5-3.3-8.1-5-12.9-4.8c1.2-2.6,1.8-5.4,1.7-8.4
					c-0.2-4.9-2.3-9.4-5.8-12.7c-3.6-3.3-8.2-5-13.1-4.8c-4.9,0.2-9.4,2.3-12.7,5.8l-3.9,4.3c-0.5-4.2-2.4-8.2-5.7-11.3
					c-3.6-3.3-8.2-5-13.1-4.8c-4.9,0.2-9.4,2.3-12.7,5.8l-80,86.8c-1.9-5.2-1.9-15.6-0.9-20c0.4-1.9,0.8-3.6,1.2-5.1
					c1.5-6.3,2.7-11.2,2.4-19.3c-0.4-11.8-8.7-20-16.5-21.1c-6.3-0.9-11.7,2.8-14,9.7c-3.2,9.6-5.5,15.9-7.7,21.9
					c-2.2,6.1-4.6,12.5-7.9,22.3c-1.1,3.2-2.2,6.4-3.3,9.5c-3.7,10.4-7.5,21.2-9.2,32.4c-2.5,16.4,0.5,33.3,2.9,44.5
					c0.2,0.8,0.4,1.9,0.2,2.5c-0.1,0.4-0.6,0.9-1,1.4L95.6,663.1z M100.3,667.2l9.7-11.1c0.7-0.8,1.7-2,2.2-3.5
					c0.8-2.2,0.3-4.3,0-5.8c-2.3-10.8-5.2-26.8-2.9-42.2c1.6-10.7,5.3-21.1,8.9-31.3c1.1-3.1,2.3-6.4,3.3-9.6
					c3.3-9.8,5.6-16.1,7.8-22.2c2.2-6.1,4.5-12.3,7.8-22c0.9-2.8,3-6.1,7.2-5.5c5.1,0.7,10.8,6.7,11.1,15.1
					c0.3,7.2-0.7,11.4-2.3,17.6c-0.4,1.6-0.8,3.3-1.2,5.2c-1,4.3-1.8,19.2,2.5,26.3l-5.3,5.8c-1.2,1.3-1.1,3.2,0.2,4.4
					c0.6,0.6,1.5,0.9,2.3,0.8c0.8,0,1.6-0.4,2.1-1l89.8-97.5c2.2-2.3,5.1-3.7,8.3-3.8c3.2-0.1,6.2,1,8.6,3.2
					c4.8,4.4,5.1,11.9,0.8,16.7l-68.8,75.2c-1.2,1.3-1.1,3.3,0.2,4.4c1.3,1.2,3.3,1.1,4.4-0.2l68.5-74.9c0,0,0.1,0,0.1-0.1
					c0.1-0.1,0.1-0.1,0.2-0.2l13.1-14.3c2.1-2.3,5-3.6,8.1-3.8c0.1,0,0.1,0,0.2,0c3.2-0.1,6.2,1,8.6,3.2c2.3,2.2,3.7,5.1,3.8,8.3
					c0.1,3.2-1,6.3-3.2,8.6l-3.7,4c-0.5,0.4-1,0.9-1.4,1.4c-0.2,0.2-0.3,0.4-0.4,0.6l-76.3,82.2c-1.2,1.3-1.1,3.2,0.2,4.4
					c0.6,0.6,1.5,0.9,2.3,0.8c0.8,0,1.6-0.4,2.1-1l77.8-83.9c2-1.7,4.5-2.7,7.2-2.8c3.2-0.1,6.3,1,8.6,3.2
					c4.8,4.5,5.1,12.1,0.6,16.9l-77.2,83.1c-1.2,1.3-1.1,3.2,0.2,4.4c0.6,0.6,1.5,0.9,2.3,0.8c0.8,0,1.5-0.4,2.1-1l44.5-47.6
					c0,0,0.1-0.1,0.1-0.1c2.1-2.3,5-3.7,8.1-3.8c0.1,0,0.1,0,0.2,0c3.2-0.1,6.2,1,8.6,3.2c2.3,2.2,3.7,5.1,3.8,8.3
					c0.1,3.2-1,6.3-3.2,8.6l-71.7,77.2c-0.2,0.1-0.3,0.3-0.5,0.5c0,0-0.2,0.3-0.6,0.7l-5.9,6.4c-0.2,0.2-0.3,0.4-0.4,0.6
					c-2.3,2.4-5.1,5.2-8,7.7c-8.7,7.7-24.5,15-35.6,13.9l-0.3,0c-1.4-0.2-3.1-0.3-4.9,0.3c-2,0.7-3.4,2.2-4.3,3.2
					c-2.1,2.2-5,5.8-7.9,9.2c-1,1.2-2,2.5-3,3.6c-2,2.4-5.3,3.3-8.2,2.1c-12.8-5-36.7-17.4-52.3-44.7
					C97.9,673,98.2,669.6,100.3,667.2z"/>
			</g>
			
				<line fill="none" stroke="#FFFDEB" stroke-width="6" stroke-linecap="round" stroke-miterlimit="10" x1="343.6" y1="463.7" x2="327.6" y2="471.5"/>
			
				<line fill="none" stroke="#FFFDEB" stroke-width="6" stroke-linecap="round" stroke-miterlimit="10" x1="367.5" y1="562.2" x2="352.1" y2="561.7"/>
			
				<line fill="none" stroke="#FFFDEB" stroke-width="6" stroke-linecap="round" stroke-miterlimit="10" x1="340.4" y1="642" x2="328.4" y2="632.8"/>
			
				<line fill="none" stroke="#FFFDEB" stroke-width="6" stroke-linecap="round" stroke-miterlimit="10" x1="261.2" y1="382.3" x2="255.4" y2="395.1"/>
			<g>
				<path fill="#0B78AF" d="M-99.7,1030.3l-88.4-81.2L78.3,659.1c4.3-4.6,11.5-4.9,16.1-0.7l71.6,65.8c4.6,4.3,4.9,11.5,0.7,16.1
					L-99.7,1030.3z"/>
				<path fill="#1DA7DD" d="M-179.9,956.7l-8.2-7.5L78.6,658.7c4.1-4.4,11-4.7,15.4-0.7l0.2,0.1L-179.9,956.7z"/>
				<path fill="#035891" d="M-100.6,1029.5l-16.8-15.5l274-298.5l8.5,7.8c4.6,4.3,4.9,11.5,0.7,16.1L-100.6,1029.5z"/>
				<path fill="#01326D" d="M-99.5,1034.5l-92.7-85.1L78.2,654.7c4.2-4.5,11.2-4.8,15.7-0.7l76.3,70.1c4.5,4.2,4.8,11.2,0.7,15.7
					L-99.5,1034.5z M-183.9,949l84.1,77.2l262.5-286c4.2-4.5,3.9-11.6-0.7-15.7l-67.7-62.1c-4.5-4.2-11.6-3.9-15.7,0.7L-183.9,949z"
					/>
				<g>
					<circle fill="#FFFFFF" cx="131.7" cy="742.4" r="10"/>
					<path fill="#01326D" d="M123.2,751.6c-5.1-4.7-5.4-12.6-0.8-17.7s12.6-5.4,17.7-0.8c5.1,4.7,5.4,12.6,0.8,17.7
						C136.2,755.9,128.3,756.2,123.2,751.6z M136.8,736.8c-3.1-2.8-7.9-2.6-10.7,0.5c-2.8,3.1-2.6,7.9,0.5,10.7
						c3.1,2.8,7.9,2.6,10.7-0.5C140.1,744.4,139.9,739.6,136.8,736.8z"/>
				</g>
				<g>
					<circle fill="#FFFFFF" cx="107.4" cy="768.8" r="10"/>
					<path fill="#01326D" d="M99,778c-5.1-4.7-5.4-12.6-0.8-17.7c4.7-5.1,12.6-5.4,17.7-0.8s5.4,12.6,0.8,17.7S104,782.6,99,778z
						 M112.6,763.2c-3.1-2.8-7.9-2.6-10.7,0.5c-2.8,3.1-2.6,7.9,0.5,10.7c3.1,2.8,7.9,2.6,10.7-0.5
						C115.9,770.8,115.7,766,112.6,763.2z"/>
				</g>
			</g>
		</g>
	</g>
</g>
<path fill="#FFE212" d="M645.5-217c0,0.5,0,1,0,1.5"/>
<path fill="#FFE000" d="M100.5,416.2c1.5-5.6,0.3-12.6,3.9-17.1c2.5-3.1,8.6-4.8,12.5-5.7c-4.9-0.8-13.1-2.1-14.3-7.3
	c-1.1-4.8-2.4-10.6-2.5-15.5c0.2,4.1-1.2,9.6-2,13.6c-1.5,8-8.9,8.6-16,9.3c4.5,0.7,10.8,1.8,13.9,5.1c2.7,2.9,3.5,7.1,3.9,11.1
	C100.2,411.8,100.4,414,100.5,416.2z"/>
<path fill="#FFE000" d="M300.2,758.6c2-7.7,0.4-17.2,5.4-23.4c3.5-4.3,11.8-6.5,17.1-7.9c-6.6-1.1-18-2.9-19.6-10
	c-1.5-6.6-3.3-14.5-3.5-21.3c0.2,5.6-1.6,13.1-2.7,18.6c-2.1,10.9-12.2,11.7-21.9,12.7c6.1,0.9,14.8,2.5,19.1,7
	c3.7,4,4.8,9.7,5.3,15.1C299.8,752.5,300,755.5,300.2,758.6z"/>
<path fill="#FFE000" d="M664.6,856.4c2-7.7,0.4-17.2,5.4-23.4c3.5-4.3,11.8-6.5,17.1-7.9c-6.6-1.1-18-2.9-19.6-10
	c-1.5-6.6-3.3-14.5-3.5-21.3c0.2,5.6-1.6,13.1-2.7,18.6c-2.1,10.9-12.2,11.7-21.9,12.7c6.1,0.9,14.8,2.5,19.1,7
	c3.7,4,4.8,9.7,5.3,15.1C664.2,850.3,664.4,853.4,664.6,856.4z"/>
<path fill="#FFE000" d="M704.2,623.9c1.4-5.2,0.3-11.7,3.7-15.9c2.4-2.9,8-4.4,11.7-5.3c-4.5-0.8-12.2-2-13.3-6.8
	c-1-4.5-2.2-9.9-2.4-14.5c0.2,3.8-1.1,8.9-1.8,12.7c-1.4,7.4-8.3,8-14.9,8.6c4.2,0.6,10.1,1.7,13,4.8c2.5,2.7,3.3,6.6,3.6,10.3
	C703.9,619.8,704.1,621.9,704.2,623.9z"/>
<path fill="#FFE000" d="M1098.1,749.5c2.4-9.2,0.5-20.6,6.4-28c4.1-5.1,14.1-7.8,20.5-9.4c-7.9-1.4-21.5-3.4-23.4-12
	c-1.8-7.9-3.9-17.3-4.1-25.4c0.3,6.7-1.9,15.6-3.2,22.2c-2.5,13-14.5,14-26.1,15.1c7.3,1.1,17.7,3,22.8,8.4
	c4.4,4.8,5.7,11.6,6.4,18.1C1097.6,742.2,1097.9,745.9,1098.1,749.5z"/>
<path fill="#FFE000" d="M1272.8,407.9c1.4-5.4,0.3-12.2,3.8-16.5c2.4-3,8.3-4.6,12.1-5.6c-4.7-0.8-12.7-2-13.9-7.1
	c-1.1-4.6-2.3-10.3-2.4-15c0.2,4-1.1,9.2-1.9,13.1c-1.5,7.7-8.6,8.3-15.4,9c4.3,0.7,10.5,1.8,13.5,4.9c2.6,2.8,3.4,6.9,3.8,10.7
	C1272.5,403.6,1272.6,405.7,1272.8,407.9z"/>
<circle fill="#FFAECF" cx="433.8" cy="462.3" r="6.9"/>
<circle fill="#FFAECF" cx="969" cy="496.9" r="6.9"/>
<circle fill="#C17AF4" cx="639.5" cy="331.3" r="6.9"/>
<circle fill="#C17AF4" cx="1306.1" cy="104.2" r="6.9"/>
<circle fill="#C17AF4" cx="179" cy="280" r="6.9"/>
<circle fill="#FF8500" cx="719.5" cy="144.4" r="6.9"/>
<circle fill="#FF8500" cx="99.6" cy="144.4" r="6.9"/>
<circle fill="#00FF8B" cx="853.1" cy="455.4" r="6.9"/>
<circle fill="#00FF8B" cx="1096.6" cy="126.9" r="6.9"/>
<circle fill="#00FF8B" cx="445.9" cy="120" r="6.9"/>
<circle fill="#00FF8B" cx="560" cy="259" r="9.1"/>
<circle fill="#64BDFF" cx="1118.1" cy="235.1" r="6.9"/>
<circle fill="#64BDFF" cx="226" cy="191.9" r="9.1"/>
<polygon fill="#00FF8B" points="298.9,249.9 329.6,249.9 307.1,280 "/>
<polygon fill="#FF8500" points="591.1,471.8 601.4,442.8 622.3,474.1 "/>
<polygon fill="#FFE000" points="911.2,90.7 921.8,61 943.2,93.1 "/>
<polygon fill="#FFAECF" points="918.9,151 938.7,136.3 938.6,166.4 "/>
<polygon fill="#FFAECF" points="1006.4,334.3 1017,356.5 987.5,350.7 "/>
<polygon fill="#FFAECF" points="368.2,82 378.8,104.2 349.3,98.3 "/>
<g>
	<path fill="#ED3A4F" d="M1258.3,183.6c-10.8,12-27.8-0.5-28.1-14c-0.1-6.3,5.7-12.9,11.9-13.7c3.1-0.4,5.1,4.6,6.2,6.8
		c1.3,2.6-1.5,6.2-3.2,7.9c-2.8,2.6-7,3.5-10.6,4.1c-6.1,0.9-14.7,0.1-18.3-5.6c-3.1-4.8-5.2-8.5-3.9-14.5
		c1.7-7.4,7.8-15.6,14.9-18.5c0.3-0.1,3,5.3,3.2,5.2c-5.8,2.4-9.9,7.8-12.9,13.2c-1.5,2.9-2.4,6-2.6,9.2c-0.1,2.1,1.8,4.5-0.5,2.1
		c1,1.1,2.4,1.7,3.7,2.3c5.6,2.5,12.7,2,18.4,0.2c4.2-1.3,10.8-6.1,8.3-11.3c1.1,1.7,2.2,3.4,3.2,5.2c-2.7-3.2-8.1,0.8-10.2,2.8
		c-4.6,4.3-5.6,10.9-2.8,16.4c-1-1.6-2-3.2-3-4.8c5.3,8.2,16.6,9,23,1.8C1254.7,178.8,1258.7,183.2,1258.3,183.6L1258.3,183.6z"/>
</g>
<g>
	<path fill="#64BDFF" d="M793.4,303.6c15.9,3.2,13.7,24.2,2.2,31.3c-5.3,3.3-14.1,1.6-17.8-3.4c-1.9-2.5,1.3-6.8,2.7-8.8
		c1.6-2.4,6.1-1.9,8.4-1.2c3.6,1.1,6.6,4.2,8.9,7.1c3.9,4.8,7.5,12.6,4.5,18.6c-2.6,5.1-4.7,8.8-10.5,10.7
		c-7.2,2.3-17.4,1.1-23.5-3.4c-0.3-0.2,3-5.2,2.8-5.4c5,3.8,11.8,4.6,17.9,4.4c3.2-0.1,6.4-1,9.3-2.4c1.9-0.9,3-3.8,2.1-0.6
		c0.4-1.4,0.2-3,0.1-4.4c-0.7-6.1-4.8-11.9-9.2-15.9c-3.2-2.9-10.7-6.2-14-1.4c0.9-1.8,1.9-3.6,2.8-5.4c-1.4,4,4.8,6.5,7.7,7.4
		c6,1.8,12.2-0.7,15.5-5.9c-0.9,1.7-1.8,3.4-2.6,5c4.4-8.7-0.7-18.8-10.1-20.7C791,309.1,792.8,303.5,793.4,303.6L793.4,303.6z"/>
</g>
<g>
	<path fill="#FF8500" d="M404.3,227.8c16.7-11.2,33.3,9.2,29.6,25.5c-1.8,7.6-10.9,13.8-18.6,12.8c-3.8-0.5-4.8-7.1-5.4-10.2
		c-0.7-3.6,3.7-7.1,6.3-8.5c4.2-2.3,9.5-2.1,14.1-1.6c7.6,0.8,17.7,4.4,20.4,12.4c2.3,6.8,3.7,11.9,0.2,18.7
		c-4.3,8.4-14.3,16.3-23.7,17.7c-0.5,0.1-2-7.3-2.3-7.2c7.8-1.1,14.4-6.4,19.6-12c2.7-3,4.7-6.5,6-10.3c0.8-2.5-0.7-6,1.3-2.4
		c-0.9-1.6-2.4-2.8-3.8-3.9c-6-4.8-14.7-6.3-22.1-5.9c-5.4,0.3-14.9,4.1-13.5,11.1c-0.8-2.4-1.5-4.8-2.3-7.2
		c2.3,4.7,10,1.5,13.2-0.3c6.8-3.7,10.1-11.4,8.4-18.9c0.7,2.3,1.4,4.5,2.1,6.7c-3.9-11.5-17.2-15.9-27.2-9.3
		C407.2,234.7,403.7,228.2,404.3,227.8L404.3,227.8z"/>
</g>
</svg>
